<svg width="12" height="16" viewBox="0 0 12 16" fill="none" xmlns="http://www.w3.org/2000/svg">
<path d="M6 0C2.65625 0 0 2.6875 0 6C0 8.4375 0.8125 9.125 5.375 15.6875C5.53125 15.9062 5.75 16 6 16C6.21875 16 6.4375 15.9062 6.59375 15.6875C11.1562 9.09375 12 8.4375 12 6C12 2.6875 9.3125 0 6 0ZM6 13.9375C5.4375 13.1562 4.9375 12.4375 4.5 11.8438C1.78125 7.96875 1.5 7.46875 1.5 6C1.5 3.53125 3.5 1.5 6 1.5C8.46875 1.5 10.5 3.53125 10.5 6C10.5 7.46875 10.1875 7.96875 7.46875 11.8438C7.03125 12.4375 6.53125 13.1562 6 13.9375ZM6 3.5C4.59375 3.5 3.5 4.59375 3.5 6C3.5 7.375 4.59375 8.5 6 8.5C7.375 8.5 8.5 7.375 8.5 6C8.5 4.59375 7.375 3.5 6 3.5ZM6 7C5.4375 7 5 6.5625 5 6C5 5.46875 5.4375 5 6 5C6.53125 5 7 5.46875 7 6C7 6.5625 6.53125 7 6 7Z" fill="#373E43"/>
</svg>
