<svg width="17" height="17" viewBox="0 0 17 17" fill="none" xmlns="http://www.w3.org/2000/svg">
<path d="M15 11.0312L11.9375 9.71875C11.25 9.40625 10.4688 9.625 10 10.1875L9.15625 11.2188C7.75 10.4062 6.59375 9.25 5.78125 7.875L6.84375 7.03125C7.375 6.5625 7.59375 5.78125 7.3125 5.125L5.96875 2C5.65625 1.28125 4.875 0.875 4.09375 1.0625L1.25 1.71875C0.5 1.875 0 2.53125 0 3.3125C0 10.875 6.125 17 13.6875 17C14.4688 17 15.125 16.5 15.25 15.75L15.9062 12.9062C16.125 12.125 15.7188 11.3438 15 11.0312ZM14.4688 12.5625L13.8125 15.4062C13.8125 15.4375 13.75 15.5 13.6875 15.5C6.96875 15.5 1.46875 10.0312 1.46875 3.3125C1.46875 3.25 1.53125 3.1875 1.59375 3.1875L4.4375 2.53125L4.46875 2.5C4.53125 2.5 4.5625 2.5625 4.59375 2.59375L5.90625 5.65625C5.9375 5.71875 5.9375 5.78125 5.875 5.8125L4.34375 7.0625C4.09375 7.28125 4 7.65625 4.15625 7.96875C5.1875 10.0625 6.90625 11.7812 9 12.8125C9.3125 12.9688 9.71875 12.9062 9.9375 12.625L11.1875 11.0938C11.2188 11.0625 11.2812 11.0312 11.3438 11.0625L14.4062 12.375C14.4688 12.4375 14.5 12.5 14.4688 12.5625Z" fill="#373E43"/>
</svg>
