<svg width="172" height="36" viewBox="0 0 172 36" fill="none" xmlns="http://www.w3.org/2000/svg">
<path d="M158.282 35.9994C156.715 35.9994 155.304 35.7203 154.048 35.1623C152.804 34.5935 151.816 33.7564 151.086 32.6509C150.367 31.5455 150.008 30.1825 150.008 28.562C150.008 27.1668 150.265 26.0131 150.781 25.1008C151.296 24.1886 151.999 23.4588 152.889 22.9115C153.78 22.3641 154.784 21.951 155.9 21.6719C157.027 21.3821 158.191 21.1729 159.393 21.0441C160.842 20.8938 162.017 20.7597 162.919 20.6416C163.82 20.5128 164.475 20.3197 164.883 20.0621C165.301 19.7938 165.51 19.3806 165.51 18.8225V18.7259C165.51 17.5132 165.151 16.5741 164.432 15.9087C163.713 15.2433 162.677 14.9106 161.325 14.9106C159.898 14.9106 158.765 15.2219 157.928 15.8443C157.102 16.4668 156.544 17.202 156.254 18.0498L150.813 17.2771C151.242 15.7746 151.95 14.5189 152.938 13.5101C153.925 12.4905 155.132 11.7285 156.56 11.2241C157.987 10.709 159.565 10.4514 161.293 10.4514C162.484 10.4514 163.67 10.5909 164.85 10.87C166.031 11.149 167.11 11.6105 168.086 12.2544C169.063 12.8876 169.846 13.7516 170.437 14.8462C171.038 15.9409 171.338 17.3093 171.338 18.9513V35.5003H165.736V32.1036H165.543C165.188 32.7905 164.689 33.4344 164.046 34.0354C163.412 34.6257 162.613 35.1032 161.647 35.4681C160.692 35.8223 159.57 35.9994 158.282 35.9994ZM159.796 31.7172C160.965 31.7172 161.98 31.4865 162.838 31.025C163.697 30.5528 164.357 29.9303 164.818 29.1576C165.29 28.3849 165.527 27.5424 165.527 26.6302V23.7164C165.344 23.8666 165.033 24.0062 164.593 24.135C164.164 24.2637 163.681 24.3764 163.144 24.473C162.607 24.5696 162.076 24.6555 161.55 24.7306C161.024 24.8057 160.568 24.8701 160.182 24.9238C159.313 25.0418 158.535 25.235 157.848 25.5033C157.161 25.7716 156.619 26.1472 156.222 26.6302C155.825 27.1024 155.626 27.7141 155.626 28.4654C155.626 29.5386 156.018 30.3489 156.801 30.8962C157.585 31.4436 158.583 31.7172 159.796 31.7172Z" fill="#C57642"/>
<path d="M146.293 10.7737V15.2812H132.078V10.7737H146.293ZM135.588 4.84949H141.415V28.0632C141.415 28.8466 141.533 29.4477 141.769 29.8662C142.016 30.274 142.338 30.5531 142.735 30.7033C143.132 30.8536 143.572 30.9287 144.055 30.9287C144.42 30.9287 144.753 30.9019 145.053 30.8482C145.365 30.7945 145.601 30.7462 145.762 30.7033L146.744 35.2591C146.432 35.3665 145.987 35.4845 145.408 35.6133C144.839 35.7421 144.141 35.8172 143.315 35.8387C141.855 35.8816 140.54 35.6616 139.371 35.1786C138.201 34.685 137.273 33.923 136.586 32.8927C135.91 31.8624 135.577 30.5745 135.588 29.0291V4.84949Z" fill="#C57642"/>
<path d="M128.609 17.3093L123.296 17.8888C123.146 17.3522 122.883 16.8478 122.507 16.3756C122.143 15.9034 121.649 15.5224 121.026 15.2326C120.404 14.9428 119.642 14.7979 118.74 14.7979C117.528 14.7979 116.508 15.0609 115.682 15.5868C114.866 16.1126 114.464 16.7941 114.474 17.6312C114.464 18.3503 114.727 18.9352 115.263 19.386C115.811 19.8367 116.712 20.207 117.968 20.4967L122.185 21.3982C124.525 21.9027 126.264 22.7022 127.401 23.7969C128.55 24.8916 129.129 26.3243 129.14 28.0951C129.129 29.6513 128.673 31.025 127.772 32.2163C126.881 33.3968 125.641 34.3198 124.053 34.9852C122.465 35.6506 120.64 35.9833 118.579 35.9833C115.553 35.9833 113.117 35.3501 111.271 34.0837C109.425 32.8066 108.325 31.0304 107.971 28.7552L113.653 28.2078C113.911 29.324 114.458 30.1664 115.295 30.7352C116.133 31.304 117.222 31.5885 118.563 31.5885C119.948 31.5885 121.059 31.304 121.896 30.7352C122.744 30.1664 123.167 29.4635 123.167 28.6264C123.167 27.918 122.894 27.3331 122.346 26.8717C121.81 26.4102 120.973 26.056 119.835 25.8092L115.617 24.9238C113.246 24.4301 111.491 23.5983 110.353 22.4285C109.216 21.248 108.652 19.7562 108.663 17.9532C108.652 16.4292 109.065 15.1092 109.902 13.993C110.75 12.8662 111.926 11.9969 113.428 11.3851C114.941 10.7626 116.685 10.4514 118.66 10.4514C121.558 10.4514 123.838 11.0685 125.502 12.3027C127.176 13.5369 128.212 15.2058 128.609 17.3093Z" fill="#C57642"/>
<path d="M97.2457 35.5005V10.7735H103.073V35.5005H97.2457ZM100.176 7.26412C99.2526 7.26412 98.4584 6.95826 97.793 6.34652C97.1276 5.72405 96.7949 4.97817 96.7949 4.10886C96.7949 3.22882 97.1276 2.48293 97.793 1.8712C98.4584 1.24873 99.2526 0.9375 100.176 0.9375C101.109 0.9375 101.903 1.24873 102.558 1.8712C103.223 2.48293 103.556 3.22882 103.556 4.10886C103.556 4.97817 103.223 5.72405 102.558 6.34652C101.903 6.95826 101.109 7.26412 100.176 7.26412Z" fill="#C57642"/>
<path d="M93.2129 10.7737L84.4072 35.5006H77.9679L69.1621 10.7737H75.376L81.0587 29.1418H81.3163L87.0151 10.7737H93.2129Z" fill="#C57642"/>
<path d="M66.2519 10.7737V15.2812H52.0371V10.7737H66.2519ZM55.5465 4.84949H61.3741V28.0632C61.3741 28.8467 61.4922 29.4477 61.7283 29.8662C61.9751 30.274 62.2971 30.5531 62.6942 30.7033C63.0913 30.8536 63.5313 30.9287 64.0142 30.9287C64.3791 30.9287 64.7118 30.9019 65.0123 30.8482C65.3236 30.7945 65.5597 30.7463 65.7206 30.7033L66.7026 35.2591C66.3914 35.3665 65.946 35.4845 65.3665 35.6133C64.7977 35.7421 64.1001 35.8172 63.2737 35.8387C61.8141 35.8816 60.4994 35.6616 59.3296 35.1786C58.1598 34.685 57.2315 33.923 56.5446 32.8927C55.8685 31.8624 55.5358 30.5745 55.5465 29.0291V4.84949Z" fill="#C57642"/>
<path d="M34.3555 35.6328V10.9847H40.0798V15.0928H40.3407C40.7974 13.6699 41.5802 12.5734 42.6892 11.8031C43.809 11.0222 45.0865 10.6317 46.5217 10.6317C46.8479 10.6317 47.2121 10.6478 47.6144 10.6799C48.0275 10.7013 48.37 10.7387 48.6418 10.7922V16.1358C48.3917 16.0502 47.9949 15.9753 47.4513 15.9111C46.9185 15.8363 46.4021 15.7988 45.902 15.7988C44.8256 15.7988 43.8579 16.0288 42.999 16.4888C42.151 16.9381 41.4823 17.564 40.9931 18.3663C40.5038 19.1687 40.2592 20.094 40.2592 21.1424V35.6328H34.3555Z" fill="#C57642"/>
<path d="M0.169922 35.633L11.7809 2.46826H19.1565L30.7835 35.633H24.4063L15.5975 9.26962L0.169922 35.633ZM2.46594 9.86654L20.7637 24.7313L16.8786 23.984L20.1435 31.09L14.5739 23.792L2.46594 9.86654Z" fill="#C57642"/>
</svg>
