<svg width="133" height="27" viewBox="0 0 133 27" fill="none" xmlns="http://www.w3.org/2000/svg">
<path d="M122.004 26.9379C120.8 26.9379 119.716 26.7235 118.751 26.2947C117.794 25.8577 117.036 25.2146 116.475 24.3653C115.923 23.516 115.646 22.4688 115.646 21.2237C115.646 20.1518 115.844 19.2654 116.24 18.5646C116.636 17.8637 117.176 17.303 117.86 16.8825C118.545 16.462 119.316 16.1445 120.173 15.9301C121.039 15.7075 121.934 15.5467 122.857 15.4478C123.97 15.3323 124.873 15.2293 125.566 15.1386C126.258 15.0396 126.761 14.8912 127.075 14.6933C127.396 14.4872 127.557 14.1697 127.557 13.7409V13.6667C127.557 12.735 127.281 12.0135 126.728 11.5023C126.176 10.9911 125.38 10.7355 124.341 10.7355C123.245 10.7355 122.375 10.9746 121.732 11.4528C121.097 11.9311 120.668 12.4959 120.445 13.1473L116.265 12.5536C116.595 11.3992 117.139 10.4345 117.898 9.65942C118.656 8.87609 119.584 8.29066 120.68 7.90312C121.777 7.50734 122.989 7.30945 124.317 7.30945C125.232 7.30945 126.143 7.41664 127.05 7.63102C127.957 7.84541 128.786 8.19996 129.536 8.69469C130.286 9.18118 130.888 9.84494 131.342 10.686C131.804 11.527 132.034 12.5783 132.034 13.8399V26.5545H127.73V23.9448H127.582C127.31 24.4725 126.926 24.9672 126.432 25.4289C125.945 25.8824 125.331 26.2494 124.589 26.5297C123.855 26.8018 122.993 26.9379 122.004 26.9379ZM123.166 23.6479C124.065 23.6479 124.844 23.4706 125.504 23.1161C126.164 22.7533 126.671 22.275 127.025 21.6814C127.388 21.0877 127.569 20.4404 127.569 19.7395V17.5009C127.429 17.6163 127.19 17.7235 126.852 17.8225C126.522 17.9214 126.151 18.008 125.739 18.0822C125.327 18.1564 124.919 18.2224 124.515 18.2801C124.111 18.3378 123.76 18.3873 123.463 18.4285C122.795 18.5192 122.198 18.6676 121.67 18.8738C121.142 19.0799 120.726 19.3685 120.421 19.7395C120.116 20.1023 119.963 20.5723 119.963 21.1495C119.963 21.9741 120.264 22.5966 120.866 23.0171C121.468 23.4377 122.235 23.6479 123.166 23.6479Z" fill="#373E43"/>
<path d="M112.792 7.55689V11.02H101.871V7.55689H112.792ZM104.567 3.00537H109.045V20.8404C109.045 21.4423 109.135 21.9041 109.317 22.2256C109.506 22.539 109.754 22.7534 110.059 22.8688C110.364 22.9842 110.702 23.0419 111.073 23.0419C111.353 23.0419 111.609 23.0213 111.84 22.9801C112.079 22.9389 112.26 22.9018 112.384 22.8688L113.139 26.369C112.899 26.4515 112.557 26.5422 112.112 26.6411C111.675 26.7401 111.139 26.7978 110.504 26.8143C109.383 26.8472 108.373 26.6782 107.474 26.3072C106.575 25.9279 105.862 25.3424 105.334 24.5509C104.815 23.7593 104.559 22.7698 104.567 21.5825V3.00537Z" fill="#373E43"/>
<path d="M99.2057 12.5783L95.1242 13.0236C95.0087 12.6113 94.8067 12.2238 94.5181 11.861C94.2378 11.4982 93.8585 11.2054 93.3803 10.9828C92.902 10.7602 92.3166 10.6489 91.624 10.6489C90.6922 10.6489 89.9089 10.8509 89.274 11.2549C88.6473 11.659 88.3381 12.1825 88.3464 12.8257C88.3381 13.3781 88.5402 13.8275 88.9524 14.1738C89.373 14.5201 90.0656 14.8046 91.0303 15.0272L94.2708 15.7199C96.0683 16.1074 97.4041 16.7217 98.2781 17.5627C99.1604 18.4038 99.6056 19.5045 99.6139 20.8651C99.6056 22.0607 99.2552 23.1161 98.5626 24.0313C97.8782 24.9383 96.9258 25.6474 95.7055 26.1587C94.4852 26.6699 93.0834 26.9255 91.5003 26.9255C89.1751 26.9255 87.3033 26.439 85.8851 25.466C84.4669 24.4848 83.6217 23.1202 83.3496 21.3722L87.7156 20.9516C87.9135 21.8092 88.334 22.4564 88.9772 22.8934C89.6203 23.3305 90.4572 23.549 91.4879 23.549C92.5516 23.549 93.405 23.3305 94.0481 22.8934C94.6995 22.4564 95.0252 21.9164 95.0252 21.2732C95.0252 20.729 94.815 20.2796 94.3945 19.9251C93.9822 19.5705 93.339 19.2984 92.465 19.1088L89.2245 18.4285C87.4023 18.0492 86.0541 17.4102 85.1801 16.5114C84.3061 15.6044 83.8732 14.4583 83.8814 13.0731C83.8732 11.9022 84.1907 10.888 84.8338 10.0305C85.4852 9.16469 86.3881 8.4968 87.5424 8.02681C88.7051 7.54857 90.045 7.30945 91.5621 7.30945C93.7884 7.30945 95.5406 7.78357 96.8186 8.7318C98.1049 9.68003 98.9006 10.9622 99.2057 12.5783Z" fill="#373E43"/>
<path d="M75.11 26.5545V7.55688H79.5873V26.5545H75.11ZM77.361 4.8606C76.6519 4.8606 76.0417 4.62561 75.5305 4.15561C75.0193 3.67737 74.7637 3.10431 74.7637 2.43642C74.7637 1.76029 75.0193 1.18723 75.5305 0.717236C76.0417 0.238997 76.6519 -0.00012207 77.361 -0.00012207C78.0784 -0.00012207 78.6885 0.238997 79.1915 0.717236C79.7027 1.18723 79.9583 1.76029 79.9583 2.43642C79.9583 3.10431 79.7027 3.67737 79.1915 4.15561C78.6885 4.62561 78.0784 4.8606 77.361 4.8606Z" fill="#373E43"/>
<path d="M72.0114 7.55701L65.2459 26.5546H60.2986L53.5332 7.55701H58.3073L62.6733 21.6692H62.8712L67.2496 7.55701H72.0114Z" fill="#373E43"/>
<path d="M51.2981 7.55689V11.02H40.377V7.55689H51.2981ZM43.0732 3.00537H47.5505V20.8404C47.5505 21.4423 47.6412 21.9041 47.8226 22.2256C48.0123 22.539 48.2597 22.7534 48.5647 22.8688C48.8698 22.9842 49.2079 23.0419 49.5789 23.0419C49.8593 23.0419 50.1149 23.0213 50.3458 22.9801C50.5849 22.9389 50.7663 22.9018 50.89 22.8688L51.6444 26.369C51.4053 26.4515 51.0631 26.5422 50.6179 26.6411C50.1809 26.7401 49.6449 26.7978 49.01 26.8143C47.8886 26.8472 46.8785 26.6782 45.9798 26.3072C45.081 25.9279 44.3678 25.3424 43.8401 24.5509C43.3206 23.7593 43.065 22.7698 43.0732 21.5825V3.00537Z" fill="#373E43"/>
<path d="M26.791 26.6561V7.71911H31.189V10.8753H31.3895C31.7403 9.78213 32.3417 8.93966 33.1938 8.34788C34.0541 7.74788 35.0357 7.44788 36.1383 7.44788C36.3889 7.44788 36.6687 7.46021 36.9778 7.48486C37.2952 7.5013 37.5583 7.53007 37.7672 7.57116V11.6767C37.575 11.6109 37.2701 11.5534 36.8525 11.504C36.4432 11.4465 36.0464 11.4177 35.6621 11.4177C34.8352 11.4177 34.0917 11.5945 33.4318 11.9479C32.7803 12.2931 32.2666 12.7739 31.8907 13.3904C31.5148 14.0068 31.3268 14.7178 31.3268 15.5232V26.6561H26.791Z" fill="#373E43"/>
<path d="M0.527344 26.6562L9.44798 1.1759H15.1146L24.0476 26.6562H19.1481L12.3803 6.40136L0.527344 26.6562ZM2.29137 6.85998L16.3495 18.2805L13.3646 17.7064L15.873 23.1659L11.5939 17.5588L2.29137 6.85998Z" fill="#373E43"/>
</svg>
