<svg width="181" height="38" viewBox="0 0 181 38" fill="none" xmlns="http://www.w3.org/2000/svg">
<path d="M167.131 37.062C165.475 37.062 163.983 36.767 162.656 36.1771C161.34 35.5758 160.296 34.691 159.525 33.5225C158.765 32.354 158.385 30.9133 158.385 29.2003C158.385 27.7255 158.657 26.506 159.202 25.5417C159.746 24.5775 160.489 23.806 161.431 23.2275C162.372 22.6489 163.433 22.2122 164.613 21.9172C165.804 21.6109 167.035 21.3897 168.305 21.2536C169.837 21.0947 171.079 20.9529 172.032 20.8281C172.985 20.692 173.677 20.4878 174.108 20.2155C174.551 19.9319 174.772 19.4952 174.772 18.9053V18.8032C174.772 17.5212 174.392 16.5286 173.632 15.8253C172.872 15.1219 171.777 14.7702 170.347 14.7702C168.839 14.7702 167.642 15.0992 166.757 15.7572C165.883 16.4152 165.294 17.1923 164.987 18.0885L159.236 17.2717C159.689 15.6835 160.438 14.3562 161.482 13.2898C162.525 12.2121 163.802 11.4066 165.311 10.8734C166.819 10.3289 168.487 10.0566 170.313 10.0566C171.573 10.0566 172.826 10.2041 174.074 10.4991C175.322 10.794 176.462 11.2818 177.494 11.9625C178.527 12.6318 179.355 13.545 179.979 14.7022C180.614 15.8593 180.932 17.3057 180.932 19.0414V36.5344H175.01V32.9439H174.806C174.431 33.67 173.904 34.3507 173.223 34.9859C172.554 35.6099 171.709 36.1147 170.688 36.5004C169.678 36.8748 168.493 37.062 167.131 37.062ZM168.731 32.5355C169.967 32.5355 171.039 32.2916 171.947 31.8038C172.855 31.3047 173.552 30.6467 174.04 29.8299C174.539 29.0131 174.789 28.1226 174.789 27.1583V24.0783C174.596 24.2371 174.267 24.3846 173.802 24.5207C173.348 24.6569 172.838 24.776 172.27 24.8781C171.703 24.9802 171.142 25.0709 170.586 25.1504C170.03 25.2298 169.548 25.2978 169.139 25.3546C168.22 25.4793 167.398 25.6835 166.672 25.9671C165.946 26.2508 165.373 26.6478 164.953 27.1583C164.533 27.6575 164.324 28.3041 164.324 29.0982C164.324 30.2326 164.738 31.0891 165.566 31.6677C166.394 32.2463 167.449 32.5355 168.731 32.5355Z" fill="white"/>
<path d="M154.457 10.3969V15.1615H139.432V10.3969H154.457ZM143.141 4.13477H149.301V28.6727C149.301 29.5008 149.426 30.1361 149.676 30.5785C149.937 31.0096 150.277 31.3046 150.697 31.4634C151.116 31.6222 151.581 31.7016 152.092 31.7016C152.478 31.7016 152.829 31.6733 153.147 31.6166C153.476 31.5598 153.726 31.5088 153.896 31.4634L154.934 36.2791C154.605 36.3925 154.134 36.5173 153.521 36.6535C152.92 36.7896 152.183 36.869 151.309 36.8917C149.766 36.9371 148.377 36.7045 147.14 36.194C145.904 35.6722 144.922 34.8667 144.196 33.7777C143.482 32.6886 143.13 31.3273 143.141 29.6937V4.13477Z" fill="white"/>
<path d="M135.764 17.3057L130.149 17.9183C129.99 17.3511 129.712 16.8179 129.315 16.3187C128.929 15.8196 128.408 15.4169 127.75 15.1106C127.092 14.8043 126.286 14.6511 125.333 14.6511C124.051 14.6511 122.974 14.9291 122.1 15.4849C121.238 16.0408 120.813 16.7612 120.824 17.646C120.813 18.4061 121.091 19.0244 121.658 19.5008C122.236 19.9773 123.189 20.3687 124.517 20.675L128.975 21.6279C131.448 22.1611 133.286 23.0063 134.488 24.1634C135.702 25.3205 136.315 26.835 136.326 28.7068C136.315 30.3518 135.833 31.8038 134.88 33.0631C133.938 34.3109 132.628 35.2866 130.949 35.9899C129.27 36.6933 127.341 37.0449 125.163 37.0449C121.964 37.0449 119.389 36.3756 117.438 35.037C115.486 33.687 114.324 31.8095 113.949 29.4045L119.956 28.8259C120.228 30.0057 120.807 30.8963 121.692 31.4975C122.577 32.0988 123.728 32.3994 125.146 32.3994C126.61 32.3994 127.784 32.0988 128.669 31.4975C129.565 30.8963 130.013 30.1532 130.013 29.2684C130.013 28.5196 129.724 27.9014 129.145 27.4136C128.578 26.9257 127.693 26.5514 126.49 26.2905L122.032 25.3546C119.525 24.8327 117.67 23.9535 116.468 22.717C115.265 21.4691 114.67 19.8922 114.681 17.9864C114.67 16.3755 115.106 14.9801 115.991 13.8003C116.887 12.6091 118.13 11.6902 119.718 11.0436C121.317 10.3856 123.161 10.0566 125.248 10.0566C128.311 10.0566 130.722 10.7089 132.48 12.0135C134.25 13.3182 135.345 15.0822 135.764 17.3057Z" fill="white"/>
<path d="M102.613 36.5346V10.3971H108.773V36.5346H102.613ZM105.71 6.68752C104.735 6.68752 103.895 6.3642 103.192 5.71757C102.488 5.0596 102.137 4.27116 102.137 3.35227C102.137 2.42203 102.488 1.63359 103.192 0.986961C103.895 0.328987 104.735 0 105.71 0C106.697 0 107.537 0.328987 108.229 0.986961C108.932 1.63359 109.284 2.42203 109.284 3.35227C109.284 4.27116 108.932 5.0596 108.229 5.71757C107.537 6.3642 106.697 6.68752 105.71 6.68752Z" fill="white"/>
<path d="M98.3505 10.3975L89.0424 36.5349H82.2358L72.9277 10.3975H79.4961L85.503 29.8134H85.7753L91.7991 10.3975H98.3505Z" fill="white"/>
<path d="M69.8518 10.3969V15.1615H54.8262V10.3969H69.8518ZM58.5358 4.13477H64.6958V28.6727C64.6958 29.5008 64.8206 30.1361 65.0702 30.5785C65.3311 31.0096 65.6714 31.3046 66.0912 31.4634C66.5109 31.6222 66.976 31.7016 67.4865 31.7016C67.8722 31.7016 68.2239 31.6733 68.5415 31.6166C68.8705 31.5598 69.1201 31.5088 69.2903 31.4634L70.3283 36.2791C69.9993 36.3925 69.5285 36.5173 68.9159 36.6535C68.3147 36.7896 67.5773 36.869 66.7038 36.8917C65.1609 36.9371 63.7712 36.7045 62.5347 36.194C61.2981 35.6722 60.3169 34.8667 59.5908 33.7777C58.8761 32.6886 58.5244 31.3273 58.5358 29.6937V4.13477Z" fill="white"/>
<path d="M36.1348 36.6738V10.6198H42.1856V14.9621H42.4614C42.9441 13.4581 43.7716 12.299 44.9438 11.4848C46.1276 10.6593 47.478 10.2466 48.995 10.2466C49.3398 10.2466 49.7248 10.2635 50.15 10.2975C50.5867 10.3201 50.9487 10.3597 51.236 10.4162V16.0646C50.9717 15.9742 50.5522 15.895 49.9776 15.8272C49.4145 15.748 48.8686 15.7084 48.3399 15.7084C47.2021 15.7084 46.1793 15.9516 45.2714 16.4378C44.375 16.9128 43.6682 17.5743 43.151 18.4224C42.6338 19.2705 42.3752 20.2487 42.3752 21.3569V36.6738H36.1348Z" fill="white"/>
<path d="M0 36.6742L12.2733 1.61768H20.0696L32.3599 36.6742H25.619L16.3076 8.80701L0 36.6742ZM2.42699 9.43798L21.7685 25.1506L17.6618 24.3608L21.1129 31.8721L15.2257 24.1578L2.42699 9.43798Z" fill="white"/>
</svg>
