<svg width="144" height="51" viewBox="0 0 144 51" fill="none" xmlns="http://www.w3.org/2000/svg">
<mask id="mask0_540_15" style="mask-type:alpha" maskUnits="userSpaceOnUse" x="0" y="0" width="144" height="51">
<rect x="0.235596" y="0.536377" width="143" height="50" fill="#D9D9D9"/>
</mask>
<g mask="url(#mask0_540_15)">
<path d="M60.8194 42.2532L60.6259 42.7176C61.6161 42.2532 62.686 41.8001 63.8355 41.3131C64.5981 41.0639 65.0078 40.7128 65.281 40.4409C65.3607 40.3843 65.3721 40.2823 65.4745 40.2597L65.5997 40.2144C65.6338 40.203 65.7476 40.1804 65.4859 40.2484C65.3151 40.2937 65.1444 40.339 64.9509 40.3729L64.6778 40.4183L64.5071 40.4636C64.2794 40.5202 64.029 40.5655 63.7559 40.5768C63.7331 40.5768 63.7559 40.5768 63.8469 40.5655L63.9266 40.5542C63.938 40.5542 63.9721 40.5542 63.9607 40.5542L63.7786 40.5768C63.5282 40.6108 63.2892 40.6448 63.0502 40.7014C62.5722 40.8034 62.1056 40.9506 61.7641 41.2111C61.4113 41.4717 60.9902 41.7888 60.8194 42.2532Z" fill="url(#paint0_linear_540_15)"/>
<path d="M48.2201 64.4652C48.8119 64.4425 49.3924 64.4085 49.9614 64.3519C49.9842 64.2613 50.007 64.1707 50.0525 64.0574C49.4379 64.2047 48.8233 64.3293 48.2201 64.4652Z" fill="url(#paint1_linear_540_15)"/>
<path d="M58.4179 50.5898C58.1789 49.8082 57.7123 49.4344 57.2115 49.106C56.7221 48.7662 56.1644 48.5283 55.7091 48.1318C55.2197 49.2306 54.5823 50.3972 53.6377 51.6092C52.7158 52.9797 52.1239 54.3616 51.737 55.8907C52.4426 56.0946 53.3645 56.4231 53.797 56.9895C53.8995 56.3438 53.9108 56.3551 53.2507 56.2532C53.9108 56.3665 55.1856 56.5251 55.1856 56.5251C55.6067 55.9247 55.5953 55.1205 55.3449 54.3843C55.1059 53.5914 54.6393 52.8438 54.0929 52.4021C55.14 52.606 56.5513 52.9231 57.6895 52.9797C57.8602 52.47 58.0423 51.9717 58.2131 51.4733C58.122 51.1108 57.9854 50.771 57.8375 50.5218L58.4179 50.5898Z" fill="url(#paint2_linear_540_15)"/>
<path d="M64.2908 41.2564L64.0632 41.0979C63.9152 41.0073 63.7559 40.9053 63.5624 40.826L63.4144 40.7694L63.3461 40.7354L63.2096 40.6788C63.2892 40.7127 63.3348 40.7354 63.4258 40.7807C63.5852 40.8487 63.7445 40.9166 63.8811 40.9959C64.0859 41.1092 64.1542 41.1885 64.5298 41.4037L64.6436 41.4716C64.5981 41.4377 64.5298 41.3924 64.268 41.2451L64.3136 41.2678C64.5526 41.415 64.7916 41.5623 65.0078 41.7322L64.8257 41.5962C65.3834 42.0267 66.3167 42.8309 66.4419 43.0008C66.3509 42.9102 66.0436 42.5817 65.5655 42.2079C65.1558 41.8681 64.7916 41.5396 64.2908 41.2564Z" fill="url(#paint3_linear_540_15)"/>
<path d="M74.9895 58.0995C74.5683 56.7742 74.1245 55.449 73.7261 54.0784C73.7489 54.4636 73.6237 54.1691 73.4416 53.8746C73.2367 53.5687 73.1229 53.2856 73.2481 53.6367C70.5393 46.8179 68.0467 44.4393 64.8144 41.4263C63.0275 39.9312 61.5251 39.2516 59.9089 39.2289C58.3155 39.195 56.8245 39.9652 55.1173 41.1998C55.8343 41.5849 57.0294 41.3697 57.3025 42.0267C57.7123 41.7322 57.974 41.483 58.0537 41.2678C58.1334 41.0412 58.0651 40.8487 57.883 40.6221C58.1448 40.9506 58.3269 41.2678 58.4293 41.6416C58.5317 41.483 58.7708 41.3697 59.2033 41.3357C59.4764 41.3584 59.6244 41.3924 59.704 41.4603C60.5008 41.0526 61.2633 40.7694 62.1283 40.6674C62.3446 40.6448 62.5722 40.6335 62.7884 40.6335H63.1982H63.1413L63.0047 40.6221C62.9478 40.6108 62.9023 40.6108 62.9364 40.6108C63.0047 40.6335 62.8454 40.5995 62.9705 40.6221C63.0616 40.6448 63.1413 40.6674 63.2096 40.7014C63.3006 40.7581 63.8583 40.9733 64.0632 41.1432L64.2339 41.2678L64.4957 41.4263C64.655 41.5283 64.7802 41.6189 64.894 41.6982C65.3151 42.0267 65.429 42.1626 65.3948 42.1173C66.9199 43.3179 68.741 45.572 69.8109 47.2937C71.7002 50.148 73.1001 53.093 74.1586 55.9021C74.3521 56.3551 74.5228 56.8082 74.6822 57.25C74.7504 57.4652 74.8301 57.6804 74.8984 57.8956L74.9212 57.9749C74.9326 57.9975 74.9098 57.9522 74.9098 57.9409L74.8643 57.8276L74.7846 57.5898L74.9895 58.0995Z" fill="url(#paint4_linear_540_15)"/>
<path d="M117.602 25.6933C116.327 27.1205 115.109 28.695 113.926 30.1561C113.618 30.5186 113.277 30.8471 112.958 31.1642L112.469 31.6286L112.219 31.8438L112.093 31.9458L112.344 31.7645C112.981 31.2661 113.493 30.8357 114.176 30.3827C114.506 30.1561 114.848 29.9409 115.2 29.737C115.496 29.5445 115.724 29.3746 116.009 29.2047C116.282 29.0348 116.578 28.8762 116.874 28.7289C117.01 28.661 117.215 28.5817 117.306 28.525L117.625 28.3551C118.023 28.1399 118.66 27.97 118.854 27.8907C119.002 27.8454 119.161 27.8115 119.332 27.7888C119.423 27.7662 119.457 27.7548 119.525 27.7548H119.639C119.685 27.7548 119.605 27.7548 119.605 27.7548C119.571 27.7548 119.537 27.7435 119.514 27.7435C119.389 27.7322 119.218 27.7095 119.082 27.6755L118.865 27.6076C118.729 27.5736 118.581 27.5396 118.444 27.4943C118.148 27.4037 117.966 27.3131 117.602 27.1772C117.169 27.0186 116.737 26.8373 116.327 26.6221C115.77 26.3276 115.212 26.0445 114.666 25.7613C114.347 25.5914 114.04 25.4102 113.732 25.2176L113.277 24.9344C113.129 24.8325 113.004 24.7532 112.708 24.5833C111.706 23.9943 110.728 23.3827 109.771 22.7257C109.293 22.3972 108.815 22.0687 108.349 21.7176L105.868 20.0299L105.23 19.5882L105.219 19.5768L105.151 19.5429L104.9 19.6674C104.855 19.6901 104.82 19.7014 104.775 19.7354L104.593 19.8713L104.229 20.1318L102.647 21.2872L107.985 24.5606C108.258 24.7305 108.531 24.9231 108.793 25.127C109.054 25.3309 109.35 25.6027 109.498 25.716C109.68 25.8632 109.863 26.0331 110.033 26.2144L110.158 26.3503L110.238 26.4183L110.397 26.5768L110.545 26.7581L110.636 26.894C110.671 26.9393 110.716 26.9846 110.75 27.0526C110.784 27.1092 110.762 27.0865 110.762 27.0639L110.739 27.0299C110.728 27.0072 110.739 27.0299 110.659 26.8827C110.602 26.7807 110.568 26.6788 110.534 26.5768C110.454 26.3843 110.386 26.1917 110.329 25.9992L110.124 25.2629L110.033 24.8438C110.01 24.7192 109.988 24.5606 109.942 24.3568C109.863 23.983 109.817 23.5979 109.783 23.2354C109.749 22.8616 109.669 22.3179 109.646 21.8649L109.589 20.3244C109.567 19.7467 109.589 19.203 109.624 18.614C109.612 18.8293 109.601 19.0445 109.601 19.2597C109.601 19.271 109.601 19.271 109.601 19.2484V19.1804V19.2597C109.589 19.6901 109.589 20.1205 109.578 20.5396C109.487 22.1933 109.293 23.7564 108.599 24.8098C108.246 25.3422 107.871 24.8778 107.518 24.4021C107.188 23.949 106.881 23.4619 106.562 24.0623C105.344 25.1383 104.251 26.3276 103.079 27.3357C101.907 28.3325 100.643 29.1594 98.8679 29.3406C98.9704 30.5186 98.1737 32.75 98.7541 33.1238C99.1866 34.4943 99.915 35.6157 100.974 36.148C102.021 36.6804 103.432 36.6124 105.003 35.5704C105.446 35.2645 105.822 36.1933 105.925 37.2694C106.016 38.3454 105.765 39.614 104.673 39.9312C105.822 40.6448 106.96 40.6448 107.973 40.4409C108.998 40.2257 109.908 39.8406 110.853 39.7273C112.184 39.4328 112.981 39.5574 113.596 40.0558C114.21 40.5655 114.609 41.449 114.905 42.5251C115.2 43.6011 115.383 44.8584 115.701 46.059C116.02 47.2597 116.464 48.4377 117.522 49.1626C118.342 50.0574 119.343 50.5784 120.481 50.6577C122.542 48.6302 124.021 46.127 124.863 43.737C125.751 41.3244 125.888 38.9458 125.819 36.8616L125.558 37.2128C125.353 35.6836 125.25 34.0865 125.114 32.4895C125.057 31.8665 125.66 31.5267 126.275 30.9603C126.889 30.4506 127.481 29.6124 127.197 28.8082C127.094 27.3697 126.32 25.9312 125.341 25.1836C124.374 24.3794 123.281 24.0849 122.28 24.0056C120.265 23.8471 118.501 24.572 117.602 25.6933Z" fill="url(#paint5_linear_540_15)"/>
<path d="M98.1168 12.237C99.4256 11.6707 100.587 11.4328 101.645 11.3875C100.962 9.50725 100.234 7.59301 99.2208 5.59948C98.4924 6.09787 97.6501 6.53961 96.9103 7.04932C98.0029 8.23864 98.4127 9.84706 98.1168 12.237Z" fill="url(#paint6_linear_540_15)"/>
<path d="M111.911 54.203C112.196 52.3454 111.649 51.4053 110.887 50.5331C110.147 49.6383 109.145 48.8341 108.463 47.271C106.687 48.3584 105.151 48.517 104.035 47.9619C102.908 47.4069 102.169 46.1157 101.827 44.1901C101.474 45.0509 100.496 44.0995 99.9492 44.3373C100.313 43.4878 99.8126 41.6982 100.894 41.1998C99.8012 41.6982 99.3801 39.8859 98.4468 40.9506C97.5477 39.3649 100.302 38.8325 99.9264 37.0315C96.8876 38.7306 95.0324 37.2581 94.6113 35.004C94.156 32.7386 95.021 29.6577 96.7055 27.7662C98.1395 25.9765 99.6191 25.3422 101.372 22.6691C103.125 19.9959 104.058 22.3746 104.968 23.5186C105.242 21.5477 104.001 20.0865 105.56 18.4328C106.812 17.5833 108.007 16.2581 108.85 14.5251C108.121 14.5477 106.835 14.8762 105.538 14.9215C104.251 14.9668 102.977 14.7403 102.533 13.8454C102.237 13.0186 101.941 12.1917 101.645 11.3649C100.587 11.4102 99.4256 11.6594 98.1168 12.2144C98.4127 9.8244 98.0143 8.21599 96.9217 7.01534C95.9884 7.61566 95.0665 8.24997 94.4178 9.07683C93.769 9.75644 93.5528 10.3794 93.6211 10.9911C93.6893 11.614 94.1105 12.2484 94.486 12.8713C95.3169 14.1286 96.2274 15.3859 96.0795 16.983C93.6097 16.8697 91.2651 18.0817 89.683 20.0865C88.1351 22.1027 87.1791 24.7985 86.9173 27.415C86.7124 30.6432 86.849 33.0445 87.6116 35.8988C88.2376 36.9296 89.4213 37.8017 91.0488 37.2581C90.5139 37.4393 88.8863 37.9717 88.9319 38.572C90.2976 41.2451 89.6717 45.3228 93.3707 45.4474C92.9154 46.2516 93.052 46.8746 91.8797 47.237C94.2129 46.4895 91.3561 50.7144 93.7804 49.9668C93.8032 51.3034 93.3365 53.1496 93.2227 54.7354C93.1089 56.3098 93.382 57.6351 95.0096 57.8843C95.977 57.8956 96.6485 58.1221 97.2404 58.428C100.04 57.5558 102.897 56.9781 106.585 56.8309C109.225 56.7289 112.082 56.004 114.745 54.7014C113.3 54.9733 112.15 54.9619 111.911 54.203Z" fill="url(#paint7_linear_540_15)"/>
<path d="M117.534 49.1399C116.475 48.415 116.031 47.2257 115.713 46.0364C115.405 44.8357 115.223 43.5671 114.916 42.5024C114.62 41.4263 114.222 40.5429 113.607 40.0331C112.992 39.5348 112.184 39.4102 110.864 39.7047C109.919 39.8179 109.009 40.2144 107.985 40.4183C106.972 40.6221 105.833 40.6221 104.684 39.9085C105.777 39.6027 106.027 38.3228 105.936 37.2467C105.845 36.1707 105.458 35.2419 105.014 35.5477C103.443 36.5898 102.032 36.6577 100.985 36.1254C99.9264 35.6043 99.198 34.4717 98.7655 33.1011C98.1851 32.7273 98.9818 30.4959 98.8793 29.3179C100.655 29.148 101.918 28.3098 103.09 27.3131C104.251 26.305 105.355 25.1157 106.573 24.0396C106.881 23.4393 107.199 23.915 107.529 24.3794C107.871 24.8551 108.258 25.3195 108.611 24.7872C109.305 23.7338 109.498 22.1707 109.589 20.517C109.601 20.0865 109.601 19.6674 109.612 19.237V19.1577V19.2257C109.612 19.237 109.612 19.237 109.612 19.237C109.623 19.0218 109.635 18.8066 109.635 18.5914C109.635 18.0364 109.658 17.47 109.703 16.9263L109.851 15.1933C109.828 15.114 109.863 15.0801 109.771 15.0008C109.715 14.9328 109.635 14.8762 109.51 14.7856C109.407 14.7176 109.248 14.627 109.077 14.5364C109.009 14.525 108.952 14.5477 108.861 14.5364C108.019 16.2581 106.824 17.5946 105.572 18.4441C104.012 20.0979 105.253 21.559 104.98 23.5299C104.069 22.3859 103.136 20.0072 101.383 22.6804C99.6305 25.3535 98.1509 25.9765 96.7168 27.7775C95.021 29.6577 94.1674 32.7386 94.6226 35.0153C95.0437 37.2694 96.8989 38.7419 99.9378 37.0428C100.313 38.8551 97.5477 39.3875 98.4582 40.9619C99.3915 39.8972 99.8126 41.7208 100.905 41.2111C99.824 41.7095 100.325 43.4992 99.9606 44.3487C100.507 44.1108 101.486 45.0623 101.839 44.2014C102.18 46.127 102.92 47.4069 104.047 47.9733C105.162 48.5283 106.698 48.3697 108.474 47.2823C109.157 48.8341 110.158 49.6496 110.898 50.5445C111.661 51.4053 112.207 52.3568 111.923 54.2144C112.162 54.9619 113.311 54.9846 114.745 54.7467C116.828 53.7386 118.854 52.3228 120.504 50.6464C119.355 50.5558 118.353 50.0348 117.534 49.1399Z" fill="url(#paint8_linear_540_15)"/>
<path d="M94.9982 57.9183C93.3707 57.6691 93.0975 56.3438 93.2113 54.7694C93.3251 53.1836 93.7918 51.3373 93.769 50.0008C91.3447 50.7484 94.2015 46.5234 91.8683 47.271C93.0406 46.8972 92.904 46.2856 93.3593 45.4814C89.6603 45.3681 90.2863 41.2904 88.9205 38.606C88.8636 37.9943 90.4911 37.4619 91.0374 37.292C89.4099 37.8357 88.2262 36.9636 87.6002 35.9328C86.8377 33.0784 86.7011 30.6772 86.9059 27.449C87.1677 24.8212 88.1238 22.1367 89.6717 20.1205C91.2651 18.127 93.5983 16.9037 96.0681 17.017C96.216 15.4199 95.3169 14.1626 94.4747 12.9053C94.0877 12.2823 93.678 11.648 93.6097 11.0251C93.5414 10.4134 93.7576 9.79042 94.4064 9.11081C95.0665 8.28395 95.977 7.63832 96.9103 7.04932C96.5802 6.68686 96.1478 6.34706 95.7039 6.05256C95.5104 5.91664 95.3624 5.82602 95.1689 5.72408L94.8958 5.58816L94.6909 5.49754L94.2584 5.29366C93.0747 4.81793 91.8 4.35353 90.5822 4.08168C89.9562 3.93444 89.3302 3.79851 88.7042 3.67392C88.0441 3.538 87.5661 3.51534 86.9856 3.43605C82.4785 2.97165 78.9844 3.61728 76.0366 4.08168C75.8658 5.40693 76.0479 6.46033 76.9243 6.93605C77.7552 7.52505 78.4039 8.1367 78.8933 8.75968C79.4055 9.39398 79.7925 10.0623 80.0542 10.7306C80.6006 12.0671 80.7371 13.449 80.8168 14.8422C80.9875 17.6626 81.0103 20.4717 82.4671 23.4619C82.6037 23.7678 82.8427 24.0623 83.0931 24.3681C83.3663 24.6852 83.6736 25.0024 83.9581 25.2969C84.5386 25.8632 85.0052 26.4749 85.0849 26.7694C85.1646 27.7548 84.88 28.6383 84.5955 29.5105C84.2882 30.3827 83.8898 31.2322 83.4915 32.0704C82.6948 33.7581 81.9094 35.4571 81.8184 37.36C81.6021 37.7678 82.1029 37.8584 82.6151 38.0283C83.15 38.2095 83.685 38.47 83.4687 39.161C83.1045 41.7548 81.1241 44.8697 82.3192 46.3309C83.8898 48.5283 84.5727 51.1448 84.88 53.9085C85.1873 56.6723 85.1077 59.606 85.3467 62.517C89.2278 61.5882 93.0975 59.7419 97.2176 58.4506C96.6372 58.1561 95.9656 57.9409 94.9982 57.9183Z" fill="url(#paint9_linear_540_15)"/>
<path d="M18.2069 25.1157C17.3419 28.106 16.8411 31.2208 16.4997 34.1772C16.181 37.1221 16.2038 39.8859 16.2948 42.6157C16.4314 41.0299 16.659 39.5008 16.9322 38.0509C17.2053 36.6011 17.5468 35.2306 17.9907 33.8713C18.8671 31.1982 19.8914 28.7629 21.0978 26.7807C23.4993 22.6124 26.1626 20.0979 28.6893 18.1836C29.9072 17.3794 31.1136 16.7225 32.2859 16.2014C32.8664 15.9409 33.4582 15.703 34.0045 15.5218C34.5394 15.3746 35.0744 15.2613 35.5979 15.1594C37.6807 14.7856 39.6953 14.6723 41.448 15.0461C41.744 15.114 42.2106 14.9555 42.8024 14.6496C43.3943 14.3438 44.1341 13.8681 44.8739 13.449C45.6251 13.0186 46.5242 12.4522 47.4006 11.9878C48.2542 11.5461 49.1761 11.0817 50.098 10.6739C53.7287 9.13346 57.1204 8.75968 58.6114 10.8098C58.8277 12.6788 57.3139 14.3891 55.1628 16.1108C56.6538 16.2014 57.9058 16.5752 59.0439 17.017C60.1593 17.504 61.1381 18.093 62.0259 18.7726C63.7673 20.1545 65.133 21.7856 66.3395 23.5073C68.7296 26.9053 70.5962 30.4846 72.8725 32.9992C75.1488 35.5364 76.7878 39.1496 77.2089 43.1254C77.3113 44.1221 77.3454 45.1416 77.3341 46.161C77.3113 47.1917 77.1861 48.2338 77.0495 49.2759L76.9926 49.661C76.9812 49.7742 76.9926 49.6836 76.9926 49.6497L77.0154 49.5364L77.0837 49.106L77.2202 48.381L77.3568 47.5089C77.3682 47.3616 77.7893 45.0283 78.6885 42.1173C78.9616 41.3471 79.212 40.7014 79.5535 39.9765C79.7242 39.614 79.9063 39.2629 80.1112 38.9005L80.1908 38.7645C75.991 48.3471 89.592 17.3115 70.7783 60.2403V60.2516L70.7897 60.2742L70.8011 60.3082L70.858 60.4555L70.9832 60.7613C71.4384 61.6335 71.3018 62.2678 71.4498 63.0833C72.4628 62.483 73.6692 61.9619 74.8984 61.5655C74.5683 59.0056 74.6935 56.6836 75.4675 54.3616C76.8105 50.4992 77.9487 47.2484 77.9373 44.0542V43.8729C78.9389 41.5849 75.6951 48.9927 80.1908 38.7419L80.1681 38.7759L80.1339 38.8438L79.986 39.1157L79.69 39.6933C79.4966 40.0898 79.3031 40.5089 79.1323 40.9506L78.882 41.5962L78.9958 41.1205C79.0641 40.8034 79.121 40.4862 79.1551 40.1691C79.2006 39.5348 79.0982 38.9118 78.9616 38.2888C78.7568 37.6998 78.5291 37.0655 78.1308 36.5105C77.6641 35.6043 77.6755 33.4636 77.7779 31.3568C77.8804 29.25 78.0852 27.1545 77.6414 26.3503C75.8772 22.6238 74.0562 19.305 72.1441 15.9749C70.2206 12.6901 68.2061 9.41664 65.5769 6.08654C64.4729 4.38751 62.3332 2.46194 59.4878 0.830875C58.4862 1.03476 57.4619 1.3066 56.4603 1.58977C55.4246 1.8956 54.3775 2.25806 53.3418 2.58654C52.2491 2.97165 51.1451 3.35677 50.007 3.73055C48.8005 4.1723 47.6282 4.54609 46.308 4.97651C45.443 5.5202 44.6349 6.00725 43.8837 6.42634C43.1211 6.84544 42.313 7.34382 41.596 7.70628C40.8562 8.10272 40.2188 8.37456 39.5132 8.73702C38.8075 9.08816 38.1474 9.38266 37.51 9.64317C36.8727 9.90369 36.2808 10.1189 35.7004 10.2888C35.1085 10.4927 34.4939 10.7192 33.9248 10.8891C32.7867 11.2403 31.7282 11.4895 30.7039 11.716C29.7137 11.8972 28.6552 12.2597 27.6422 12.6674C26.6179 13.0865 25.5935 13.6189 24.5578 14.4118C24.2961 14.6043 24.0343 14.8195 23.7725 15.0574C23.5107 15.3066 23.2262 15.6124 22.953 15.9183C22.3953 16.5412 21.8376 17.2661 21.2913 18.1157C20.7336 18.9652 20.1987 19.894 19.6751 21.0153C19.163 22.2613 18.6508 23.6092 18.2069 25.1157Z" fill="url(#paint10_linear_540_15)"/>
<path d="M82.3306 46.3422C81.1469 44.881 83.1159 41.7662 83.4801 39.1723C83.6963 38.47 83.1614 38.2208 82.6265 38.0396C82.1143 37.8697 81.6021 37.7791 81.8298 37.3713C81.9094 35.4684 82.7062 33.7807 83.5029 32.0817C83.9012 31.2322 84.2996 30.394 84.6069 29.5218C84.8914 28.6383 85.1873 27.7662 85.0963 26.7807C85.0166 26.4862 84.5386 25.8746 83.9695 25.3082C83.685 25.0137 83.3777 24.6966 83.1045 24.3794C82.8427 24.0849 82.6151 23.7791 82.4785 23.4733C81.0217 20.483 80.9875 17.6739 80.8282 14.8535C80.7485 13.4603 80.6006 12.0898 80.0656 10.7419C79.7925 10.0736 79.4169 9.40531 78.9047 8.771C78.4039 8.1367 77.7666 7.52505 76.9357 6.94738C76.0707 6.47165 75.8886 5.41825 76.0479 4.09301C76.0366 4.09301 76.0138 4.10434 75.991 4.10434C76.9243 1.46518 73.1229 1.52181 72.2351 1.62376C69.9474 1.78233 68.3654 1.65774 66.8175 1.40855C65.2469 1.1367 63.7673 0.751587 61.7527 0.536377C61.0015 0.615665 60.2617 0.728934 59.5106 0.864856C62.3559 2.49592 64.4957 4.42149 65.5997 6.12052C68.2288 9.45062 70.2434 12.7128 72.1668 16.0089C74.0789 19.3276 75.9 22.6577 77.6641 26.3843C78.1194 27.1885 77.9031 29.2839 77.8007 31.3907C77.6869 33.4975 77.6755 35.6383 78.1535 36.5445C78.5519 37.0995 78.7795 37.7338 78.9844 38.3228C79.121 38.9458 79.2234 39.5687 79.1779 40.203C79.1437 40.5202 79.0868 40.8373 79.0185 41.1545L78.9047 41.6302L79.1551 40.9846C79.3372 40.5429 79.5193 40.1238 79.7128 39.7273L80.0087 39.1496L80.1567 38.8778L80.1908 38.8098L80.2136 38.7759C75.7179 49.0267 78.973 41.6189 77.96 43.9069V44.0882C77.9714 47.2823 76.8219 50.5331 75.4902 54.3956C74.7163 56.7176 74.5911 59.0396 74.9212 61.5995C75.9569 61.2597 77.0154 61.0105 78.0511 60.8972C78.6202 60.7386 79.0185 61.2823 79.2689 61.8713C79.5079 62.4603 79.6331 63.0946 79.6331 63.0946C81.4656 63.2645 83.4232 63.0267 85.3581 62.5509C85.119 59.6399 85.1873 56.7063 84.8914 53.9425C84.5841 51.1561 83.9012 48.5396 82.3306 46.3422Z" fill="url(#paint11_linear_540_15)"/>
<path d="M19.254 58.2354C19.88 59.2208 20.5401 60.2629 21.1775 61.2597C21.5076 61.7807 21.8376 62.2904 22.1449 62.7775C22.4295 63.2079 22.7026 63.6043 22.953 63.9895C24.5351 66.1302 24.8879 67.2063 24.9789 68.0898C25.0359 68.894 24.8196 69.4263 25.3773 70.3325L25.2976 69.3131C25.5139 69.7208 25.7643 70.1286 26.0033 70.5364C26.2423 69.0979 26.652 67.8293 27.2666 66.7759C27.8471 65.6318 28.6552 64.7597 29.7023 64.182C28.9739 62.9587 28.4048 61.7694 28.0975 60.716C28.0178 60.4441 27.9609 60.2063 27.904 59.9344C27.8471 59.6513 27.8016 59.3681 27.7902 59.1076C27.7447 58.5865 27.7902 58.1221 27.904 57.7257C28.3251 56.3891 28.8487 55.1432 29.4177 53.9765C29.7137 53.4215 29.9982 52.7419 30.3055 52.1189C30.6128 51.4959 30.9315 50.8843 31.2616 50.2726C31.9217 49.0493 32.6046 47.9506 33.333 46.716C34.0614 45.4361 34.824 44.1674 35.6207 42.8988C37.2255 40.2937 39.0693 37.428 41.4025 34.5849C43.7926 31.7872 46.7405 29.284 49.8362 27.5509C51.0541 26.792 52.0329 27.0752 52.9206 27.7435C53.8198 28.4005 54.662 29.4539 55.5953 30.5073C57.4619 32.648 59.7382 34.6529 62.0714 35.2759C63.6079 35.6836 65.5655 34.8907 66.8744 37.4959C67.6484 39.2289 68.1492 41.2225 68.8093 42.9555C69.4808 44.6998 70.1637 46.1723 71.0628 47.1577C73.1229 49.1739 75.0691 52.3115 75.8431 56.106C76.0366 57.0687 76.1731 58.0655 76.2642 59.0736L76.3097 59.8551L76.3325 60.4895L76.3211 59.4927C76.3211 58.8924 76.3325 58.292 76.3325 57.6804C76.3439 57.3066 76.3552 56.9328 76.378 56.559C76.4235 55.6982 76.4691 54.8827 76.526 54.0558C76.5829 53.1383 76.7308 52.2775 76.8219 51.2354C76.9243 50.2273 77.095 49.1966 77.2999 48.1432C77.4479 47.0784 77.6755 46.0024 77.9714 44.915C78.2218 43.8503 78.4722 42.8082 78.8706 41.7548C79.2348 40.7354 79.6217 39.8519 80.1453 38.9231L80.225 38.7645C57.7464 90.0299 73.9879 52.9797 68.98 64.4199H68.9914L69.0824 64.3859L69.2759 64.3179L69.6515 64.182C69.8791 64.0801 70.2092 64.0121 70.3685 63.8762C70.7328 63.627 71.0401 63.3325 71.4839 63.0946C71.336 62.2904 71.4726 61.6448 71.0173 60.7726L70.8921 60.4668L70.8352 60.3195L70.8238 60.2856L70.8124 60.2629V60.2516C89.6261 17.3228 76.0252 48.3584 80.225 38.7759L80.1453 38.9118C79.9404 39.2742 79.7583 39.6367 79.5876 39.9878C79.2462 40.7128 78.9958 41.3584 78.7226 42.1286C77.8235 45.0396 77.4023 47.3729 77.391 47.5202L77.2544 48.3924L77.1178 49.1173L77.0495 49.5477L77.0268 49.661C77.0268 49.695 77.004 49.7742 77.0268 49.6723L77.0837 49.2872C77.2202 48.2451 77.3454 47.203 77.3682 46.1723C77.3796 45.1529 77.3454 44.1335 77.243 43.1367C76.8219 39.161 75.1829 35.5477 72.9066 33.0105C70.6303 30.4959 68.7637 26.9166 66.3736 23.5186C65.1672 21.7969 63.8014 20.1772 62.06 18.784C61.1836 18.1157 60.1934 17.5267 59.0781 17.0283C57.9399 16.5865 56.6879 16.2128 55.1969 16.1221C57.3481 14.4005 58.8618 12.6901 58.6456 10.8212C57.1546 8.77101 53.7515 9.14479 50.1322 10.6852C49.2103 11.093 48.2884 11.5574 47.4347 11.9992C46.5584 12.4636 45.6592 13.0299 44.908 13.4603C44.1682 13.8794 43.4171 14.3551 42.8366 14.661C42.2448 14.9668 41.7895 15.1254 41.4822 15.0574C39.7408 14.6836 37.7149 14.7969 35.6321 15.1707C35.1085 15.2726 34.5736 15.3859 34.0387 15.5331C33.481 15.7144 32.9005 15.9522 32.32 16.2128C31.1477 16.7338 29.9527 17.3907 28.7235 18.195C26.1968 20.0979 23.5335 22.6124 21.132 26.792C19.9255 28.7742 18.9012 31.2095 18.0248 33.8827C17.5809 35.2419 17.2395 36.6124 16.9663 38.0623C16.6818 39.5121 16.4655 41.0412 16.329 42.627C16.4086 44.2354 16.5794 45.6286 16.7615 47.1124C16.8525 47.8373 16.9663 48.5623 17.0802 49.2759C17.194 49.9895 17.3192 50.7144 17.4557 51.292C17.7175 52.504 18.0021 53.716 18.3207 54.9053C18.5939 56.038 18.9581 57.3519 19.254 58.2354Z" fill="url(#paint12_linear_540_15)"/>
<path d="M71.0742 47.1691C70.1751 46.1836 69.4922 44.7111 68.8207 42.9668C68.1605 41.2338 67.6597 39.2516 66.8858 37.5073C65.5769 34.9134 63.6079 35.695 62.0828 35.2872C59.761 34.6642 57.4846 32.6594 55.6067 30.5186C54.662 29.4652 53.8198 28.4118 52.932 27.7548C52.0443 27.0865 51.0654 26.8034 49.8476 27.5623C46.7518 29.2953 43.804 31.7872 41.4139 34.5962C39.0693 37.4393 37.2369 40.2937 35.6321 42.9102C34.8467 44.1788 34.0728 45.4474 33.3444 46.7273C32.616 47.9619 31.9331 49.0606 31.2729 50.2839C30.9429 50.8843 30.6242 51.4959 30.3169 52.1302C30.0096 52.7532 29.725 53.4328 29.4291 53.9878C28.8601 55.1545 28.3365 56.4005 27.9154 57.737C27.7902 58.1221 27.756 58.5865 27.8016 59.1189C27.8243 59.3794 27.8585 59.6513 27.9154 59.9458C27.9723 60.2176 28.0292 60.4555 28.1089 60.7273C28.4162 61.7807 28.9852 62.97 29.7137 64.1933C30.5445 63.7289 31.5347 63.4797 32.6729 63.3438C33.6289 63.1286 33.5492 61.0898 33.4696 58.7451C33.4468 58.1448 33.4241 57.5218 33.4013 56.8988C33.3671 56.1966 33.3444 55.483 33.333 54.8034C33.333 54.1238 33.3444 53.4668 33.3899 52.8551C33.4241 52.5493 33.4468 52.2548 33.4696 51.9716C33.5037 51.6545 33.5379 51.3487 33.5834 51.0655C34.915 49.3665 36.6109 49.7176 38.375 50.4652C39.2628 50.7937 40.1847 51.2467 41.118 51.7225L42.5179 52.4474L43.9065 52.9911C44.578 53.127 45.2495 53.2403 45.9324 53.3422C45.8641 53.4441 45.8186 53.5348 45.7844 53.6254C46.2738 53.7613 46.7405 53.8972 47.1957 53.9199C47.3892 52.7419 47.6624 51.4959 48.0607 50.4312C47.9241 50.1594 47.8331 49.8988 47.8445 49.4797C47.9811 49.5817 48.1404 49.695 48.3225 49.7969C48.9599 48.2338 49.8932 46.8179 51.1224 45.7872C52.3402 44.8697 53.3304 43.8503 54.1612 42.9781C54.0133 42.7176 53.9677 42.4118 53.9677 42.072C54.0702 42.3778 54.2409 42.5477 54.4685 42.6496C55.9709 41.0979 57.2912 39.8859 58.9073 39.5574C60.5349 39.2289 62.1511 39.7047 64.0518 41.0186C65.8842 42.3212 67.1817 43.7257 68.6272 45.4927C68.9459 45.9458 69.367 46.4102 69.6857 46.9312C70.0157 47.4409 70.3572 48.0072 70.7214 48.6076C71.0742 49.2079 71.427 49.8649 71.7799 50.5784C71.962 50.9409 72.1441 51.3034 72.3262 51.6885L72.3945 51.8357L72.3831 51.8017L72.3262 51.6772C72.44 51.915 72.531 52.1189 72.6221 52.3115C72.6904 52.4587 72.7473 52.606 72.827 52.7759C72.8725 52.8438 72.9635 53.0024 73.0432 53.1496C73.1798 53.4441 73.3391 53.75 73.2822 53.3649C73.5212 54.0445 73.7603 54.7127 73.9993 55.3697C74.1928 55.8907 74.3862 56.4118 74.5683 56.9215C74.8643 57.6917 75.126 58.6205 75.3081 59.0962C75.3992 59.3907 75.4903 59.6739 75.5813 59.9458C75.6268 60.093 75.661 60.2289 75.7065 60.3649C75.5358 59.8098 75.513 59.6966 75.4333 59.4587C75.2854 59.017 75.0805 58.3827 74.8984 57.8276L75.0122 58.1788L75.1488 58.6092C75.3764 59.2548 75.5813 59.9005 75.7406 60.4895L75.8658 60.9765C75.8089 60.7273 75.7406 60.4894 75.6837 60.2403C75.5699 59.7532 75.4675 59.2775 75.3764 58.8244C75.513 59.4021 75.6382 59.9571 75.7634 60.4781C75.8203 60.7047 75.8772 60.9199 75.9227 61.1351C75.8772 60.9992 75.8203 60.716 75.752 60.4895C75.661 60.1723 75.5699 59.8665 75.4789 59.5606C75.6951 60.2403 75.9 61.0558 76.0479 61.5542C76.1162 61.8487 76.1959 62.1318 76.2642 62.4263L76.4235 63.1399L76.5146 63.5704C76.4918 63.4571 76.4691 63.3325 76.4349 63.1966L76.5032 63.5024C76.526 63.6383 76.5601 63.8422 76.6056 64.0801C76.6056 64.0801 76.617 64.1707 76.6056 64.0914C76.5943 64.0008 76.5829 63.8988 76.5715 63.7969C76.5487 63.525 76.5146 63.2419 76.4918 62.9474C76.4691 62.6529 76.4463 62.3357 76.4349 61.9959C76.4122 61.4862 76.3894 61.0331 76.378 60.6367C76.3552 60.093 76.3666 59.538 76.378 58.9263C76.3666 58.1788 76.378 57.4085 76.4235 56.6157C76.4122 56.9894 76.4008 57.3632 76.378 57.737C76.378 58.3487 76.3666 58.949 76.3666 59.5493L76.378 60.5461L76.3552 59.9118L76.3097 59.1302C76.2187 58.1221 76.0821 57.1254 75.8886 56.1626C75.0691 52.3115 73.1343 49.1852 71.0742 47.1691Z" fill="url(#paint13_linear_540_15)"/>
<path d="M37.6377 27.1159C37.9494 26.9418 38.2697 26.7242 38.5987 26.4631C38.9451 26.2021 39.2741 25.9323 39.5857 25.6538C39.8974 25.3753 40.1745 25.1142 40.4169 24.8705C40.6766 24.6094 40.8758 24.3831 41.0143 24.1916C41.1182 24.0698 41.2567 24.0089 41.4299 24.0089C41.7242 24.0089 41.958 24.122 42.1312 24.3483C42.3216 24.5572 42.4169 24.7834 42.4169 25.0271C42.4169 25.2012 42.3822 25.3491 42.313 25.471C42.1052 25.7495 41.8368 26.0628 41.5078 26.4109C41.1961 26.7416 40.8238 27.0811 40.3909 27.4292C39.9754 27.7773 39.5165 28.1342 39.0143 28.4997C38.5122 28.8478 37.9927 29.1785 37.4559 29.4918C37.1615 32.9209 36.4429 35.9148 35.3001 38.4735C34.1746 41.0148 32.7287 43.1384 30.9625 44.8442C29.2136 46.55 27.205 47.8294 24.9366 48.6823C22.6855 49.5178 20.2873 49.9356 17.7419 49.9356C16.3566 49.9356 14.954 49.7876 13.5341 49.4917C12.1315 49.1958 10.7809 48.7432 9.48223 48.134C8.18355 47.5074 6.97144 46.7241 5.84591 45.7842C4.72039 44.8268 3.74204 43.6954 2.91089 42.3899C2.07973 41.067 1.42173 39.5701 0.936886 37.8991C0.469359 36.2107 0.235596 34.3221 0.235596 32.2333C0.235596 30.162 0.478017 28.2038 0.962859 26.3587C1.46502 24.4962 2.19228 22.773 3.14465 21.189C4.11433 19.5877 5.30047 18.1516 6.70305 16.881C8.10563 15.5929 9.72465 14.4876 11.5601 13.5651C11.6987 13.4954 11.8545 13.4606 12.0277 13.4606C12.2701 13.4606 12.4952 13.5477 12.703 13.7217C12.9108 13.8958 13.0147 14.1308 13.0147 14.4267C13.0147 14.6182 12.954 14.8009 12.8328 14.975C12.7289 15.1316 12.5818 15.2535 12.3913 15.3405C12.2874 15.3927 11.9584 15.5581 11.4043 15.8366C10.8675 16.0977 10.2182 16.5067 9.45626 17.0637C8.71168 17.6207 7.90649 18.3344 7.0407 19.2047C6.19223 20.0576 5.40436 21.102 4.6771 22.3379C3.96715 23.5737 3.36976 25.0097 2.88491 26.6459C2.41739 28.2821 2.18362 30.1446 2.18362 32.2333C2.18362 34.148 2.38275 35.8364 2.78102 37.2986C3.1966 38.7607 3.74204 40.0401 4.41736 41.1367C5.09268 42.2333 5.86323 43.1645 6.72902 43.9304C7.61213 44.6963 8.51255 45.3316 9.43028 45.8364C10.3653 46.3412 11.2917 46.7415 12.2095 47.0374C13.1272 47.3333 13.967 47.5509 14.7289 47.6901C15.5081 47.8294 16.1661 47.9164 16.7029 47.9512C17.2397 47.986 17.5947 48.0035 17.7678 48.0035C19.915 48.0035 21.9669 47.664 23.9236 46.9852C25.8803 46.3063 27.6378 45.262 29.1963 43.8521C30.7547 42.4247 32.062 40.6145 33.1183 38.4213C34.1919 36.2281 34.9191 33.6171 35.3001 30.5884C34.1746 31.0932 32.9971 31.4936 31.7677 31.7895C30.5556 32.068 29.2828 32.2072 27.9495 32.2072C26.1141 32.2072 24.3305 31.9722 22.5989 31.5023C20.8674 31.0149 19.3349 30.2925 18.0016 29.3352C16.6683 28.3604 15.5947 27.1507 14.7809 25.706C13.967 24.2613 13.5601 22.5728 13.5601 20.6407C13.5601 19.0742 13.8285 17.673 14.3653 16.4371C14.9194 15.1839 15.664 14.1221 16.599 13.2518C17.5341 12.364 18.6163 11.6939 19.8457 11.2413C21.0752 10.7714 22.3652 10.5364 23.7158 10.5364C24.824 10.5364 25.9322 10.6669 27.0405 10.928C28.166 11.1891 29.2396 11.5982 30.2612 12.1552C31.3001 12.6948 32.2612 13.3823 33.1443 14.2178C34.0447 15.0533 34.8239 16.0542 35.4819 17.2204C36.1572 18.3866 36.6854 19.7182 37.0663 21.2151C37.4472 22.6947 37.6377 24.357 37.6377 26.2021V27.1159ZM35.6118 28.343C35.6637 27.6642 35.6897 26.9853 35.6897 26.3065C35.6897 23.8348 35.3261 21.7199 34.5988 19.9619C33.8889 18.2039 32.9538 16.7678 31.7936 15.6538C30.6508 14.5398 29.3608 13.7304 27.9236 13.2257C26.4863 12.7035 25.0491 12.4424 23.6119 12.4424C22.5037 12.4424 21.4561 12.6251 20.4691 12.9907C19.4994 13.3562 18.6423 13.8871 17.8977 14.5833C17.1704 15.2796 16.5904 16.1412 16.1575 17.1682C15.7419 18.1777 15.5341 19.3353 15.5341 20.6407C15.5341 21.894 15.7938 23.1037 16.3133 24.27C16.8501 25.4188 17.638 26.4457 18.6769 27.3509C19.7159 28.2386 21.0059 28.9523 22.547 29.4918C24.1054 30.014 25.9149 30.2751 27.9755 30.2751C29.3781 30.2751 30.7114 30.1011 31.9755 29.7529C33.2568 29.4048 34.4689 28.9348 35.6118 28.343Z" fill="#666861"/>
<path d="M51.3259 40.6928C51.0661 41.9112 50.6938 43.0514 50.209 44.1131C49.7241 45.1575 49.2047 46.0714 48.6506 46.8546C48.1138 47.6379 47.5683 48.2558 47.0142 48.7084C46.4601 49.161 45.9839 49.4047 45.5857 49.4395C45.1355 49.4395 44.6333 49.2132 44.0792 48.7606C43.5424 48.3081 43.0229 47.6814 42.5208 46.8807C42.0359 46.0627 41.629 45.0966 41.3 43.9826C40.971 42.8686 40.8065 41.6589 40.8065 40.3534C40.8065 39.2046 40.9017 38.3343 41.0922 37.7424C41.3 37.1506 41.4299 36.8112 41.4818 36.7242C41.5684 36.5675 41.681 36.4457 41.8195 36.3586C41.9753 36.2716 42.1485 36.2281 42.339 36.2281C42.6333 36.2281 42.8671 36.3325 43.0402 36.5414C43.2134 36.7329 43.3 36.9505 43.3 37.1941C43.3 37.3682 43.2654 37.5162 43.1961 37.638C43.1788 37.6728 43.1009 37.9078 42.9623 38.343C42.8238 38.7781 42.7545 39.4308 42.7545 40.3012C42.7545 41.3281 42.8584 42.2768 43.0662 43.1471C43.274 44.0174 43.5251 44.7659 43.8195 45.3925C44.1138 46.0191 44.4169 46.5152 44.7285 46.8807C45.0575 47.2289 45.3259 47.4029 45.5337 47.4029C45.6722 47.4029 45.8714 47.2724 46.1311 47.0113C46.4082 46.7502 46.6939 46.3934 46.9883 45.9408C47.2999 45.4882 47.6116 44.9487 47.9233 44.322C48.2523 43.6954 48.5467 43.0165 48.8064 42.2855C49.0835 41.537 49.2999 40.7537 49.4558 39.9356C49.6289 39.1001 49.7155 38.2559 49.7155 37.403C49.7155 37.229 49.7068 37.0636 49.6895 36.9069C49.6895 36.7329 49.6895 36.5588 49.6895 36.3847C49.6895 36.0888 49.7761 35.8451 49.9493 35.6537C50.1397 35.4448 50.3821 35.3404 50.6765 35.3404C50.9016 35.3404 51.1008 35.41 51.2739 35.5492C51.4644 35.6885 51.5856 35.88 51.6375 36.1237C51.6375 36.1062 51.6722 36.2455 51.7414 36.5414C51.8107 36.8373 51.9233 37.2202 52.0791 37.6902C52.2523 38.1428 52.46 38.6389 52.7025 39.1785C52.9622 39.7181 53.2652 40.2228 53.6115 40.6928C53.9752 41.1454 54.3908 41.5283 54.8583 41.8416C55.3258 42.1549 55.8626 42.3116 56.4687 42.3116C56.7976 42.3116 57.0834 42.242 57.3258 42.1027C57.5682 41.9635 57.7673 41.8068 57.9232 41.6327C58.079 41.4587 58.1916 41.2933 58.2608 41.1367C58.3474 40.98 58.3907 40.893 58.3907 40.8756C58.46 40.6841 58.5725 40.5361 58.7284 40.4317C58.9015 40.3099 59.092 40.2489 59.2998 40.2489C59.5768 40.2489 59.8106 40.3534 60.0011 40.5623C60.1915 40.7537 60.2868 40.98 60.2868 41.2411C60.2868 41.3629 60.2608 41.4848 60.2089 41.6066C60.105 41.8503 59.9491 42.1288 59.7413 42.4421C59.5509 42.7555 59.2998 43.0514 58.9881 43.3299C58.6764 43.6084 58.3041 43.8433 57.8712 44.0348C57.4557 44.2089 56.9881 44.2959 56.4687 44.2959C55.8626 44.2959 55.2998 44.1915 54.7804 43.9826C54.2609 43.7563 53.7847 43.4778 53.3518 43.1471C52.9362 42.799 52.5553 42.416 52.209 41.9983C51.8626 41.5631 51.5683 41.128 51.3259 40.6928Z" fill="#666861"/>
<path d="M78.4943 41.6327C78.4251 41.772 78.2779 42.0679 78.0528 42.5205C77.845 42.9556 77.5679 43.4604 77.2216 44.0348C76.8926 44.6092 76.503 45.2097 76.0528 45.8364C75.6026 46.463 75.1004 47.0374 74.5463 47.5596C73.9922 48.0818 73.3948 48.5169 72.7542 48.8651C72.1135 49.1958 71.4382 49.3611 70.7282 49.3611C69.7239 49.3611 68.8754 49.0391 68.1828 48.3951C67.5075 47.7511 67.014 46.9417 66.7023 45.9669C66.1135 46.9591 65.4123 47.7511 64.5984 48.3429C63.7846 48.9173 62.9707 49.2045 62.1569 49.2045C61.5162 49.2045 60.9361 49.0914 60.4167 48.8651C59.8972 48.6214 59.4556 48.2907 59.092 47.8729C58.7284 47.4378 58.4426 46.933 58.2349 46.3586C58.0444 45.7842 57.9492 45.1575 57.9492 44.4787C57.9492 43.121 58.1743 41.9287 58.6245 40.9017C59.092 39.8573 59.6807 38.987 60.3907 38.2907C61.1006 37.5945 61.8798 37.0723 62.7283 36.7242C63.5941 36.376 64.4253 36.202 65.2218 36.202C65.7586 36.202 66.2521 36.2803 66.7023 36.437C67.1525 36.5762 67.5334 36.7329 67.8451 36.9069C68.1741 37.081 68.4252 37.2464 68.5984 37.403C68.7715 37.5423 68.8668 37.6206 68.8841 37.638C69.0746 37.8643 69.1698 38.0993 69.1698 38.343C69.1698 38.604 69.0746 38.839 68.8841 39.0479C68.6936 39.2394 68.4685 39.3351 68.2088 39.3351C67.9317 39.3351 67.6979 39.2394 67.5075 39.0479C67.4728 39.0131 67.3949 38.9522 67.2737 38.8651C67.1525 38.7607 66.988 38.6563 66.7802 38.5518C66.5724 38.4474 66.3213 38.3604 66.027 38.2907C65.7499 38.2037 65.4296 38.1602 65.0659 38.1602C64.5292 38.1602 63.9577 38.282 63.3517 38.5257C62.7456 38.7694 62.1915 39.1523 61.6894 39.6745C61.1872 40.1793 60.763 40.8234 60.4167 41.6066C60.0877 42.3725 59.9232 43.2863 59.9232 44.3481C59.9232 44.6789 59.9578 45.0183 60.027 45.3664C60.0963 45.6971 60.2175 46.0017 60.3907 46.2802C60.5638 46.5587 60.7976 46.785 61.092 46.9591C61.3863 47.1331 61.75 47.2202 62.1829 47.2202C62.4945 47.2202 62.8495 47.1157 63.2478 46.9069C63.6634 46.698 64.053 46.376 64.4166 45.9408C64.7975 45.5056 65.1352 44.9574 65.4296 44.2959C65.7413 43.6345 65.9577 42.8512 66.0789 41.9461C66.1135 41.7024 66.2261 41.5022 66.4166 41.3455C66.607 41.1715 66.8322 41.0844 67.0919 41.0844C67.3343 41.0844 67.5421 41.1802 67.7153 41.3717C67.9057 41.5631 68.0096 41.7807 68.0269 42.0244C68.0443 42.3551 68.0789 42.8251 68.1308 43.4343C68.1828 44.0261 68.2953 44.6179 68.4685 45.2097C68.659 45.8016 68.936 46.315 69.2997 46.7502C69.6633 47.1854 70.1654 47.4029 70.8061 47.4029C71.2217 47.4029 71.6286 47.2898 72.0269 47.0635C72.4425 46.8372 72.8407 46.5413 73.2217 46.1758C73.6199 45.7929 73.9922 45.3664 74.3386 44.8964C74.7022 44.4091 75.0312 43.9217 75.3256 43.4343C75.6199 42.9469 75.8797 42.477 76.1048 42.0244C76.3299 41.5718 76.5203 41.1802 76.6762 40.8495C76.7628 40.658 76.884 40.51 77.0398 40.4056C77.213 40.3012 77.3948 40.2489 77.5853 40.2489C77.8796 40.2489 78.1134 40.3621 78.2866 40.5884C78.477 40.7972 78.5723 41.0235 78.5723 41.2672C78.5723 41.3891 78.5463 41.5109 78.4943 41.6327Z" fill="#666861"/>
<path d="M97.7409 22.7817C97.7409 23.0602 97.6456 23.2865 97.4551 23.4606C97.2647 23.6172 97.0309 23.6955 96.7539 23.6955H83.5852V23.9828C83.5852 25.0445 83.5073 26.1759 83.3514 27.377C83.1956 28.578 82.9791 29.7791 82.7021 30.9801C82.4423 32.1637 82.1393 33.3212 81.793 34.4526C81.464 35.5841 81.1177 36.6284 80.7541 37.5858C80.4077 38.5431 80.0614 39.3786 79.7151 40.0923C79.3688 40.7885 79.0571 41.3107 78.7801 41.6589C79.0052 42.4595 79.2736 43.208 79.5852 43.9043C79.8969 44.5831 80.2432 45.1836 80.6242 45.7058C81.0225 46.2106 81.4467 46.611 81.8969 46.9069C82.3471 47.2028 82.832 47.3507 83.3514 47.3507C83.9575 47.3507 84.5549 47.0983 85.1436 46.5935C85.7497 46.0714 86.3038 45.4621 86.8059 44.7659C87.3254 44.0522 87.7756 43.3386 88.1566 42.6249C88.5548 41.8938 88.8405 41.3107 89.0137 40.8756C89.1869 40.4578 89.4899 40.2489 89.9228 40.2489C90.2171 40.2489 90.4509 40.3534 90.6241 40.5623C90.8145 40.7711 90.9098 40.9974 90.9098 41.2411C90.9098 41.3629 90.8838 41.4848 90.8318 41.6066C90.7799 41.7285 90.65 42.007 90.4422 42.4421C90.2518 42.8773 89.992 43.3821 89.663 43.9565C89.3513 44.5309 88.9791 45.1401 88.5462 45.7842C88.1306 46.4108 87.6544 46.9852 87.1176 47.5074C86.5981 48.0296 86.0354 48.4647 85.4293 48.8129C84.8233 49.161 84.1826 49.335 83.5073 49.335C82.3125 49.335 81.2389 48.9434 80.2865 48.1601C79.3342 47.3768 78.5203 46.2802 77.845 44.8703C77.187 43.4604 76.6848 41.7894 76.3385 39.8573C75.9922 37.9252 75.8191 35.8103 75.8191 33.5127C75.8191 32.9383 75.8277 32.2682 75.845 31.5023C75.8623 30.719 75.897 29.9009 75.9489 29.048C76.0009 28.1777 76.0788 27.2899 76.1827 26.3848C76.2866 25.4623 76.4251 24.5659 76.5983 23.6955H67.2737C66.9967 23.6955 66.7629 23.6172 66.5724 23.4606C66.3819 23.2865 66.2867 23.0602 66.2867 22.7817C66.2867 22.5032 66.3819 22.2856 66.5724 22.129C66.7629 21.9549 66.9967 21.8679 67.2737 21.8679H77.0398C77.213 21.2413 77.4121 20.6668 77.6372 20.1447C77.8796 19.6225 78.148 19.1699 78.4424 18.787C78.7541 18.404 79.0917 18.1081 79.4554 17.8992C79.8363 17.673 80.2519 17.5598 80.7021 17.5598C81.135 17.5598 81.5073 17.673 81.819 17.8992C82.148 18.1081 82.425 18.404 82.6501 18.787C82.8752 19.1699 83.0484 19.6225 83.1696 20.1447C83.3081 20.6668 83.412 21.2413 83.4813 21.8679H96.7539C97.0309 21.8679 97.2647 21.9549 97.4551 22.129C97.6456 22.2856 97.7409 22.5032 97.7409 22.7817ZM78.1827 39.0479C78.7021 37.8991 79.1697 36.6632 79.5852 35.3404C80.0181 34.0001 80.3818 32.6511 80.6761 31.2934C80.9878 29.9357 81.2216 28.6041 81.3774 27.2987C81.5506 25.9932 81.6372 24.7921 81.6372 23.6955H78.5723C78.3298 24.7747 78.1307 26.115 77.9749 27.7164C77.8363 29.3004 77.7671 31.2325 77.7671 33.5127C77.7671 34.7834 77.8017 35.8539 77.871 36.7242C77.9402 37.5771 78.0441 38.3517 78.1827 39.0479ZM80.5982 19.518C80.4424 19.518 80.2173 19.6921 79.9229 20.0402C79.6285 20.3709 79.3342 20.9802 79.0398 21.8679H81.5333C81.4467 21.1368 81.3168 20.5624 81.1437 20.1447C80.9878 19.7269 80.806 19.518 80.5982 19.518Z" fill="#666861"/>
<path d="M93.3513 28.4214C93.3513 29.0828 93.1175 29.6485 92.65 30.1185C92.1998 30.571 91.6457 30.7973 90.9877 30.7973C90.3297 30.7973 89.7669 30.571 89.2994 30.1185C88.8492 29.6485 88.6241 29.0828 88.6241 28.4214C88.6241 28.0906 88.6847 27.786 88.8059 27.5075C88.9271 27.2116 89.0916 26.9592 89.2994 26.7504C89.5245 26.5241 89.7756 26.35 90.0526 26.2282C90.347 26.1063 90.6587 26.0454 90.9877 26.0454C91.3167 26.0454 91.6197 26.1063 91.8968 26.2282C92.1911 26.35 92.4422 26.5241 92.65 26.7504C92.8751 26.9592 93.0483 27.2116 93.1695 27.5075C93.2907 27.786 93.3513 28.0906 93.3513 28.4214ZM89.1436 43.7215C89.1436 41.215 89.2994 38.7172 89.6111 36.2281C89.6457 35.9844 89.7496 35.7755 89.9228 35.6015C90.1132 35.41 90.3557 35.3143 90.65 35.3143C90.9098 35.3143 91.1262 35.4187 91.2994 35.6276C91.4725 35.819 91.5591 36.0453 91.5591 36.3064C91.5591 36.4109 91.5331 36.7242 91.4812 37.2464C91.4466 37.7685 91.3946 38.3952 91.3254 39.1262C91.2734 39.8399 91.2215 40.6058 91.1695 41.4239C91.1349 42.2246 91.1176 42.9643 91.1176 43.6432C91.1176 44.5657 91.2041 45.3142 91.3773 45.8886C91.5678 46.4456 91.8015 46.8807 92.0786 47.1941C92.373 47.5074 92.676 47.7163 92.9877 47.8207C93.3167 47.9251 93.6283 47.9773 93.9227 47.9773C94.4076 47.9773 94.9097 47.8033 95.4292 47.4552C95.9487 47.107 96.4768 46.6197 97.0136 45.993C97.5677 45.3664 98.1218 44.6179 98.6759 43.7476C99.23 42.8599 99.7755 41.8764 100.312 40.7972C100.399 40.6232 100.52 40.4926 100.676 40.4056C100.832 40.3012 101.005 40.2489 101.195 40.2489C101.472 40.2489 101.698 40.3534 101.871 40.5623C102.061 40.7711 102.156 40.9974 102.156 41.2411C102.156 41.4152 102.122 41.5631 102.052 41.685C101.845 42.0853 101.585 42.5727 101.273 43.1471C100.962 43.7215 100.607 44.3133 100.208 44.9225C99.8101 45.5318 99.3685 46.141 98.8837 46.7502C98.4162 47.342 97.914 47.8816 97.3772 48.369C96.8404 48.839 96.2777 49.2219 95.6889 49.5178C95.1002 49.8137 94.5028 49.9617 93.8968 49.9617C93.1175 49.9617 92.4336 49.7963 91.8448 49.4656C91.2561 49.1349 90.7539 48.691 90.3383 48.134C89.9401 47.577 89.6371 46.9243 89.4293 46.1758C89.2388 45.4099 89.1436 44.5918 89.1436 43.7215ZM91.8968 28.4214C91.8968 28.1777 91.8015 27.9688 91.6111 27.7947C91.4379 27.6033 91.2301 27.5075 90.9877 27.5075C90.7453 27.5075 90.5375 27.6033 90.3643 27.7947C90.1912 27.9688 90.1046 28.1777 90.1046 28.4214C90.1046 28.665 90.1912 28.8739 90.3643 29.048C90.5375 29.222 90.7453 29.3091 90.9877 29.3091C91.2301 29.3091 91.4379 29.222 91.6111 29.048C91.8015 28.8739 91.8968 28.665 91.8968 28.4214Z" fill="#666861"/>
<path d="M112.26 46.0452C111.827 46.0452 111.446 46.0104 111.117 45.9408C110.858 46.463 110.546 46.9504 110.182 47.4029C109.819 47.8381 109.394 48.221 108.91 48.5518C108.442 48.8825 107.914 49.1436 107.325 49.335C106.736 49.5265 106.096 49.6222 105.403 49.6222C104.589 49.6222 103.845 49.4743 103.169 49.1784C102.494 48.8999 101.905 48.5082 101.403 48.0035C100.901 47.4813 100.511 46.8633 100.234 46.1497C99.9573 45.4186 99.8187 44.6179 99.8187 43.7476C99.8187 42.6336 100.018 41.6676 100.416 40.8495C100.814 40.014 101.273 39.3264 101.793 38.7868C102.312 38.2298 102.832 37.8208 103.351 37.5597C103.871 37.2812 104.26 37.1419 104.52 37.1419C104.814 37.1419 105.031 37.2202 105.169 37.3769C105.325 37.5336 105.403 37.7424 105.403 38.0035C105.403 38.2994 105.308 38.5257 105.117 38.6824C104.944 38.8216 104.719 38.9609 104.442 39.1001C104.165 39.2394 103.871 39.4396 103.559 39.7006C103.247 39.9443 102.953 40.2576 102.676 40.6406C102.416 41.0235 102.2 41.4761 102.027 41.9983C101.853 42.5205 101.767 43.1036 101.767 43.7476C101.767 44.322 101.853 44.8616 102.027 45.3664C102.2 45.8538 102.451 46.2802 102.78 46.6458C103.109 46.9939 103.498 47.2724 103.949 47.4813C104.399 47.6727 104.901 47.7685 105.455 47.7685C106.442 47.7685 107.256 47.5422 107.897 47.0896C108.555 46.6197 109.057 46.0278 109.403 45.3142C108.381 44.7746 107.542 44.0087 106.884 43.0165C106.226 42.0244 105.897 40.9104 105.897 39.6745C105.897 38.6824 106.13 37.873 106.598 37.2464C107.083 36.6197 107.715 36.3064 108.494 36.3064C108.961 36.3064 109.403 36.4196 109.819 36.6458C110.234 36.8721 110.598 37.229 110.91 37.7163C111.239 38.2037 111.498 38.8303 111.689 39.5962C111.879 40.3621 111.974 41.2759 111.974 42.3377C111.974 42.8947 111.905 43.4778 111.767 44.087C111.871 44.1044 111.974 44.1131 112.078 44.1131C112.182 44.1131 112.295 44.1131 112.416 44.1131C113.005 44.1131 113.533 44.0435 114 43.9043C114.468 43.765 114.892 43.5561 115.273 43.2776C115.654 42.9991 115.992 42.6423 116.286 42.2072C116.598 41.772 116.892 41.2672 117.169 40.6928C117.221 40.5884 117.334 40.4926 117.507 40.4056C117.68 40.3012 117.853 40.2489 118.026 40.2489C118.251 40.2489 118.459 40.3447 118.65 40.5361C118.857 40.7102 118.961 40.9452 118.961 41.2411C118.961 41.3804 118.927 41.537 118.857 41.7111C118.788 41.8677 118.719 42.0157 118.65 42.1549C118.355 42.6771 118.009 43.1819 117.611 43.6693C117.23 44.1393 116.771 44.557 116.234 44.9225C115.715 45.2707 115.126 45.5492 114.468 45.758C113.81 45.9669 113.074 46.0627 112.26 46.0452ZM107.819 39.4657C107.819 39.7964 107.862 40.1445 107.949 40.51C108.035 40.8756 108.165 41.2411 108.338 41.6066C108.529 41.9548 108.754 42.2942 109.013 42.6249C109.29 42.9382 109.611 43.208 109.974 43.4343C110.026 43.0688 110.052 42.7119 110.052 42.3638C110.052 41.8938 110.018 41.4152 109.948 40.9278C109.879 40.4404 109.775 39.9966 109.637 39.5962C109.516 39.1785 109.36 38.8477 109.169 38.604C108.979 38.343 108.754 38.2124 108.494 38.2124C108.39 38.2124 108.252 38.2907 108.078 38.4474C107.905 38.604 107.819 38.9435 107.819 39.4657Z" fill="#666861"/>
<path d="M122.883 46.5674C123.16 45.993 123.481 45.3664 123.844 44.6876C124.208 43.9913 124.598 43.2951 125.013 42.5988C125.429 41.8851 125.862 41.1802 126.312 40.4839C126.779 39.7877 127.264 39.1262 127.766 38.4996C128.269 37.8904 128.771 37.4552 129.273 37.1941C129.792 36.9156 130.277 36.7764 130.727 36.7764C131.628 36.7764 132.295 37.1071 132.727 37.7685C133.16 38.43 133.377 39.2481 133.377 40.2228C133.377 40.4491 133.359 40.7276 133.325 41.0583C133.308 41.3717 133.282 41.7111 133.247 42.0766C133.23 42.4421 133.204 42.8164 133.169 43.1993C133.152 43.5648 133.143 43.913 133.143 44.2437C133.143 44.6614 133.16 45.0618 133.195 45.4447C133.247 45.8277 133.333 46.1671 133.455 46.463C133.576 46.7415 133.749 46.9678 133.974 47.1418C134.199 47.2985 134.494 47.3768 134.857 47.3768C135.515 47.3768 136.156 47.1244 136.779 46.6197C137.403 46.0975 137.974 45.4882 138.494 44.792C139.03 44.0783 139.489 43.356 139.87 42.6249C140.268 41.8938 140.563 41.302 140.753 40.8495C140.84 40.658 140.961 40.51 141.117 40.4056C141.29 40.3012 141.472 40.2489 141.662 40.2489C141.957 40.2489 142.191 40.3621 142.364 40.5884C142.554 40.7972 142.649 41.0235 142.649 41.2672C142.649 41.3891 142.623 41.5109 142.571 41.6327C142.502 41.772 142.364 42.0592 142.156 42.4944C141.948 42.9295 141.671 43.4343 141.325 44.0087C140.996 44.5657 140.606 45.1662 140.156 45.8103C139.706 46.4369 139.204 47.0113 138.649 47.5335C138.113 48.0557 137.524 48.4908 136.883 48.839C136.26 49.1871 135.602 49.3611 134.909 49.3611C134.13 49.3611 133.498 49.2132 133.013 48.9173C132.528 48.604 132.147 48.2036 131.87 47.7163C131.593 47.2115 131.403 46.6632 131.299 46.0714C131.212 45.4621 131.169 44.8529 131.169 44.2437C131.169 43.9826 131.178 43.6867 131.195 43.356C131.23 43.0253 131.264 42.6771 131.299 42.3116C131.351 41.9461 131.385 41.5805 131.403 41.215C131.437 40.8495 131.455 40.5013 131.455 40.1706C131.455 39.6136 131.368 39.2394 131.195 39.0479C131.022 38.839 130.866 38.7346 130.727 38.7346C130.45 38.7346 130.13 38.9 129.766 39.2307C129.42 39.544 129.048 39.9617 128.65 40.4839C128.269 41.0061 127.87 41.5979 127.455 42.2594C127.057 42.9034 126.676 43.5474 126.312 44.1915C125.966 44.8355 125.637 45.4534 125.325 46.0452C125.031 46.6197 124.797 47.0983 124.624 47.4813C124.277 48.2123 123.931 48.6997 123.585 48.9434C123.238 49.2045 122.883 49.335 122.52 49.335C122.018 49.335 121.611 49.1871 121.299 48.8912C121.005 48.5779 120.857 48.1427 120.857 47.5857C120.857 47.4639 120.875 47.2289 120.909 46.8807C120.944 46.5152 120.987 46.0888 121.039 45.6014C121.091 45.0966 121.143 44.557 121.195 43.9826C121.247 43.4082 121.299 42.8425 121.351 42.2855C121.403 41.7111 121.446 41.1802 121.481 40.6928C121.515 40.2054 121.533 39.7964 121.533 39.4657C121.533 39.0305 121.515 38.6128 121.481 38.2124C121.446 37.8121 121.377 37.5684 121.273 37.4813C121.117 37.5336 120.84 37.8643 120.442 38.4735C120.044 39.0653 119.533 40.1184 118.909 41.6327C118.823 41.8242 118.693 41.9722 118.52 42.0766C118.347 42.181 118.165 42.2333 117.974 42.2333C117.68 42.2333 117.446 42.1375 117.273 41.9461C117.1 41.7372 117.013 41.5022 117.013 41.2411C117.013 41.1193 117.039 40.9887 117.091 40.8495C117.87 38.987 118.598 37.6206 119.273 36.7503C119.966 35.8626 120.65 35.4187 121.325 35.4187C121.723 35.4187 122.061 35.5231 122.338 35.732C122.615 35.9235 122.831 36.1846 122.987 36.5153C123.16 36.846 123.282 37.2115 123.351 37.6119C123.438 38.0122 123.481 38.4213 123.481 38.839C123.481 39.1523 123.455 39.6397 123.403 40.3012C123.368 40.9626 123.316 41.6763 123.247 42.4421C123.178 43.1906 123.108 43.9391 123.039 44.6876C122.987 45.436 122.935 46.0627 122.883 46.5674Z" fill="#666861"/>
</g>
<defs>
<linearGradient id="paint0_linear_540_15" x1="79.2356" y1="-8.46362" x2="49.2791" y2="78.6502" gradientUnits="userSpaceOnUse">
<stop stop-color="#D0D5DC"/>
<stop offset="1" stop-color="#EAEDF1"/>
</linearGradient>
<linearGradient id="paint1_linear_540_15" x1="79.2356" y1="-8.46362" x2="49.2791" y2="78.6502" gradientUnits="userSpaceOnUse">
<stop stop-color="#D0D5DC"/>
<stop offset="1" stop-color="#EAEDF1"/>
</linearGradient>
<linearGradient id="paint2_linear_540_15" x1="79.2356" y1="-8.46362" x2="49.2791" y2="78.6502" gradientUnits="userSpaceOnUse">
<stop stop-color="#D0D5DC"/>
<stop offset="1" stop-color="#EAEDF1"/>
</linearGradient>
<linearGradient id="paint3_linear_540_15" x1="79.2356" y1="-8.46362" x2="49.2791" y2="78.6502" gradientUnits="userSpaceOnUse">
<stop stop-color="#D0D5DC"/>
<stop offset="1" stop-color="#EAEDF1"/>
</linearGradient>
<linearGradient id="paint4_linear_540_15" x1="79.2356" y1="-8.46362" x2="49.2791" y2="78.6502" gradientUnits="userSpaceOnUse">
<stop stop-color="#D0D5DC"/>
<stop offset="1" stop-color="#EAEDF1"/>
</linearGradient>
<linearGradient id="paint5_linear_540_15" x1="79.2356" y1="-8.46362" x2="49.2791" y2="78.6502" gradientUnits="userSpaceOnUse">
<stop stop-color="#D0D5DC"/>
<stop offset="1" stop-color="#EAEDF1"/>
</linearGradient>
<linearGradient id="paint6_linear_540_15" x1="79.2356" y1="-8.46362" x2="49.2791" y2="78.6502" gradientUnits="userSpaceOnUse">
<stop stop-color="#D0D5DC"/>
<stop offset="1" stop-color="#EAEDF1"/>
</linearGradient>
<linearGradient id="paint7_linear_540_15" x1="79.2356" y1="-8.46362" x2="49.2791" y2="78.6502" gradientUnits="userSpaceOnUse">
<stop stop-color="#D0D5DC"/>
<stop offset="1" stop-color="#EAEDF1"/>
</linearGradient>
<linearGradient id="paint8_linear_540_15" x1="79.2356" y1="-8.46362" x2="49.2791" y2="78.6502" gradientUnits="userSpaceOnUse">
<stop stop-color="#D0D5DC"/>
<stop offset="1" stop-color="#EAEDF1"/>
</linearGradient>
<linearGradient id="paint9_linear_540_15" x1="79.2356" y1="-8.46362" x2="49.2791" y2="78.6502" gradientUnits="userSpaceOnUse">
<stop stop-color="#D0D5DC"/>
<stop offset="1" stop-color="#EAEDF1"/>
</linearGradient>
<linearGradient id="paint10_linear_540_15" x1="79.2356" y1="-8.46362" x2="49.2791" y2="78.6502" gradientUnits="userSpaceOnUse">
<stop stop-color="#D0D5DC"/>
<stop offset="1" stop-color="#EAEDF1"/>
</linearGradient>
<linearGradient id="paint11_linear_540_15" x1="79.2356" y1="-8.46362" x2="49.2791" y2="78.6502" gradientUnits="userSpaceOnUse">
<stop stop-color="#D0D5DC"/>
<stop offset="1" stop-color="#EAEDF1"/>
</linearGradient>
<linearGradient id="paint12_linear_540_15" x1="79.2356" y1="-8.46362" x2="49.2791" y2="78.6502" gradientUnits="userSpaceOnUse">
<stop stop-color="#D0D5DC"/>
<stop offset="1" stop-color="#EAEDF1"/>
</linearGradient>
<linearGradient id="paint13_linear_540_15" x1="79.2356" y1="-8.46362" x2="49.2791" y2="78.6502" gradientUnits="userSpaceOnUse">
<stop stop-color="#D0D5DC"/>
<stop offset="1" stop-color="#EAEDF1"/>
</linearGradient>
</defs>
</svg>
