<svg width="874" height="347" viewBox="0 0 874 347" fill="none" xmlns="http://www.w3.org/2000/svg">
<path d="M439.659 319.91C515.2 319.91 576.439 258.672 576.439 183.13C576.439 107.589 515.2 46.3501 439.659 46.3501C364.117 46.3501 302.879 107.589 302.879 183.13C302.879 258.672 364.117 319.91 439.659 319.91Z" fill="#373E43"/>
<path d="M162 277.67H14L0 217.85L158.51 29.2002H244.1V214.35H282.96V277.67H244.1V337.06H162V277.67ZM162 214.79V127.02L89.08 214.79H162Z" fill="#C57642"/>
<path d="M752.367 277.67H604.367L590.367 217.85L748.867 29.2002H834.457V214.35H873.327V277.67H834.457V337.06H752.367V277.67ZM752.367 214.79V127.02L679.437 214.79H752.367Z" fill="#C57642"/>
<path d="M483.11 119.79L447.68 119.83L395.18 119.89L329 330.13H447.68H550.36L483.11 119.79Z" fill="url(#paint0_linear_46_7052)"/>
<path d="M439.68 166.11C478.202 166.11 509.43 134.882 509.43 96.3599C509.43 57.838 478.202 26.6099 439.68 26.6099C401.158 26.6099 369.93 57.838 369.93 96.3599C369.93 134.882 401.158 166.11 439.68 166.11Z" fill="#C57642"/>
<path d="M509.287 96.3599C509.287 96.3599 486.107 110.66 439.147 110.66C392.187 110.66 369.597 96.3599 369.597 96.3599C369.597 96.3599 288.977 119.58 288.977 135.65C288.977 151.72 379.387 166.13 439.147 166.13C498.907 166.13 589.657 151.72 589.657 135.65C589.657 119.58 509.287 96.3599 509.287 96.3599Z" fill="#C57642"/>
<path d="M366.328 97.25C366.328 97.25 374.248 138.86 425.188 138.86C476.128 138.86 511.388 99.77 511.388 99.77C511.388 99.77 489.308 106.66 439.148 106.66C388.988 106.66 366.328 97.25 366.328 97.25Z" fill="#373E43"/>
<path d="M437.16 27.1299V7.12988" stroke="#3E64C3" stroke-width="3" stroke-miterlimit="10"/>
<path d="M437.55 14.78C441.632 14.78 444.94 11.4714 444.94 7.39C444.94 3.30862 441.632 0 437.55 0C433.469 0 430.16 3.30862 430.16 7.39C430.16 11.4714 433.469 14.78 437.55 14.78Z" fill="#C57642"/>
<path d="M439.68 346.25C500.807 346.25 550.36 338.97 550.36 329.99C550.36 321.01 500.807 313.73 439.68 313.73C378.553 313.73 329 321.01 329 329.99C329 338.97 378.553 346.25 439.68 346.25Z" fill="url(#paint1_linear_46_7052)"/>
<path d="M485.758 243.86L442.398 276.43C442.103 276.653 441.767 276.816 441.41 276.909C441.052 277.002 440.68 277.023 440.314 276.972C439.948 276.921 439.596 276.798 439.277 276.611C438.959 276.424 438.68 276.175 438.458 275.88L401.718 226.98C401.271 226.383 401.079 225.633 401.184 224.894C401.289 224.156 401.682 223.489 402.278 223.04L437.918 196.27L455.828 199.34L486.318 239.92C486.764 240.517 486.956 241.267 486.851 242.006C486.746 242.744 486.353 243.411 485.758 243.86Z" fill="#373E43"/>
<path d="M437.918 196.27L455.828 199.34L448.038 205.73C447.796 205.928 447.517 206.074 447.217 206.161C446.917 206.248 446.603 206.274 446.293 206.237C445.983 206.199 445.684 206.1 445.413 205.944C445.142 205.788 444.906 205.579 444.718 205.33L437.918 196.27Z" fill="#7188C3"/>
<path d="M428.108 236.03C430.096 236.03 431.708 234.418 431.708 232.43C431.708 230.442 430.096 228.83 428.108 228.83C426.12 228.83 424.508 230.442 424.508 232.43C424.508 234.418 426.12 236.03 428.108 236.03Z" fill="#BFCBEB"/>
<path d="M447.737 221.29C449.725 221.29 451.337 219.678 451.337 217.69C451.337 215.702 449.725 214.09 447.737 214.09C445.748 214.09 444.137 215.702 444.137 217.69C444.137 219.678 445.748 221.29 447.737 221.29Z" fill="#BFCBEB"/>
<path d="M452.163 244.218C453.952 242.874 453.056 238.664 450.163 234.813C447.27 230.963 443.475 228.931 441.687 230.275C439.899 231.618 440.794 235.829 443.687 239.679C446.58 243.529 450.375 245.561 452.163 244.218Z" fill="#1F3262"/>
<path d="M519.808 216.71L503.278 218.52C503.102 218.537 502.925 218.496 502.775 218.403C502.625 218.309 502.51 218.169 502.449 218.003C502.387 217.837 502.382 217.656 502.434 217.487C502.486 217.318 502.593 217.172 502.738 217.07C505.808 215 510.208 210.94 513.288 203.5C516.368 196.06 515.788 191.42 515.398 189.91C515.357 189.741 515.373 189.563 515.443 189.404C515.514 189.244 515.635 189.113 515.788 189.03L530.788 180.86C530.9 180.797 531.026 180.762 531.154 180.759C531.283 180.755 531.411 180.783 531.526 180.84C531.641 180.898 531.741 180.982 531.816 181.087C531.891 181.191 531.94 181.312 531.958 181.44C532.735 187.607 531.944 193.87 529.658 199.65C527.357 205.642 524.23 211.283 520.368 216.41C520.301 216.496 520.216 216.568 520.12 216.619C520.023 216.671 519.917 216.702 519.808 216.71Z" fill="#C57642"/>
<path d="M333.189 278.22C331.259 283.02 325.569 300.47 339.639 311.67C340.019 311.975 340.476 312.169 340.959 312.23C341.443 312.292 341.934 312.219 342.379 312.02L363.379 302.47C363.74 302.307 364.06 302.064 364.314 301.759C364.568 301.455 364.75 301.097 364.846 300.712C364.942 300.327 364.95 299.926 364.869 299.538C364.788 299.149 364.62 298.784 364.379 298.47C361.059 294.11 355.279 284.8 357.619 275.2C357.73 274.762 357.727 274.303 357.61 273.866C357.492 273.43 357.264 273.031 356.947 272.708C356.631 272.386 356.236 272.15 355.802 272.024C355.368 271.899 354.909 271.887 354.469 271.99L335.029 276.64C334.618 276.737 334.237 276.931 333.916 277.206C333.596 277.481 333.347 277.829 333.189 278.22Z" fill="#C57642"/>
<path d="M374.048 149.78C384.21 149.78 392.448 141.542 392.448 131.38C392.448 121.218 384.21 112.98 374.048 112.98C363.886 112.98 355.648 121.218 355.648 131.38C355.648 141.542 363.886 149.78 374.048 149.78Z" fill="#373E43"/>
<path d="M505.31 149.78C515.472 149.78 523.71 141.542 523.71 131.38C523.71 121.218 515.472 112.98 505.31 112.98C495.148 112.98 486.91 121.218 486.91 131.38C486.91 141.542 495.148 149.78 505.31 149.78Z" fill="#373E43"/>
<path d="M505.31 145.51C513.113 145.51 519.44 139.184 519.44 131.38C519.44 123.576 513.113 117.25 505.31 117.25C497.506 117.25 491.18 123.576 491.18 131.38C491.18 139.184 497.506 145.51 505.31 145.51Z" fill="#BFCBEB"/>
<path d="M439.537 157.25C449.699 157.25 457.937 149.012 457.937 138.85C457.937 128.688 449.699 120.45 439.537 120.45C429.375 120.45 421.137 128.688 421.137 138.85C421.137 149.012 429.375 157.25 439.537 157.25Z" fill="#373E43"/>
<path d="M440.16 289.13V305.13" stroke="#373E43" stroke-width="3" stroke-linecap="round" stroke-linejoin="round"/>
<path d="M455.16 283.13V292.13" stroke="#373E43" stroke-width="3" stroke-linecap="round" stroke-linejoin="round"/>
<path d="M455.16 301.13V305.13" stroke="#373E43" stroke-width="3" stroke-linecap="round" stroke-linejoin="round"/>
<path d="M425.16 282.13V291.13" stroke="#373E43" stroke-width="3" stroke-linecap="round" stroke-linejoin="round"/>
<path d="M425.16 297.13V302.13" stroke="#373E43" stroke-width="3" stroke-linecap="round" stroke-linejoin="round"/>
<path d="M468.77 66.4598C474.756 66.4598 479.61 61.6066 479.61 55.6198C479.61 49.633 474.756 44.7798 468.77 44.7798C462.783 44.7798 457.93 49.633 457.93 55.6198C457.93 61.6066 462.783 66.4598 468.77 66.4598Z" fill="#D9E0F3"/>
<path d="M489.767 81.95C492.711 81.95 495.097 79.5637 495.097 76.62C495.097 73.6764 492.711 71.29 489.767 71.29C486.824 71.29 484.438 73.6764 484.438 76.62C484.438 79.5637 486.824 81.95 489.767 81.95Z" fill="#D9E0F3"/>
<path d="M437.157 77.77C427.157 77.77 423.527 82.85 423.527 93.01C423.527 103.17 433.527 110.31 437.157 110.31C440.787 110.31 450.787 103.18 450.787 93.01C450.787 82.84 447.127 77.77 437.157 77.77Z" fill="#94A8D9"/>
<path d="M439.659 96.1998C439.659 96.1998 439.479 92.0398 442.179 90.1998C444.879 88.3598 448.859 89.6698 448.859 89.6698C448.859 89.6698 448.959 94.9498 445.979 96.2098C442.179 97.7798 439.659 96.1998 439.659 96.1998Z" fill="#BFCBEB"/>
<path d="M434.818 96.1998C434.818 96.1998 434.998 92.0398 432.298 90.1998C429.598 88.3598 425.618 89.6698 425.618 89.6698C425.618 89.6698 425.518 94.9498 428.498 96.2098C432.298 97.7798 434.818 96.1998 434.818 96.1998Z" fill="#BFCBEB"/>
<path d="M439.149 114.66C391.579 114.66 368.429 100.35 367.469 99.7399C367.006 99.4686 366.603 99.107 366.282 98.6765C365.962 98.2461 365.732 97.7558 365.605 97.2346C365.479 96.7134 365.458 96.172 365.545 95.6427C365.632 95.1134 365.824 94.6069 366.11 94.1534C366.397 93.6999 366.772 93.3087 367.212 93.0029C367.653 92.6972 368.151 92.4832 368.676 92.3738C369.201 92.2643 369.743 92.2615 370.269 92.3657C370.795 92.4698 371.295 92.6787 371.739 92.98C371.949 93.11 394.139 106.66 439.149 106.66C484.159 106.66 506.979 93.09 507.149 92.95C508.053 92.3943 509.141 92.2207 510.173 92.4673C511.206 92.7139 512.098 93.3606 512.654 94.265C513.209 95.1693 513.383 96.2574 513.136 97.2898C512.89 98.3222 512.243 99.2143 511.339 99.77C510.409 100.38 486.659 114.66 439.149 114.66Z" fill="#373E43"/>
<path d="M505.306 117.26C504.637 117.269 503.969 117.322 503.306 117.42L491.816 135.48C492.73 138.471 494.608 141.076 497.156 142.89L512.266 119.13C510.149 117.91 507.75 117.265 505.306 117.26Z" fill="#D9E0F3"/>
<path d="M515.228 121.33L500.418 144.63C501.983 145.209 503.639 145.507 505.308 145.51C505.518 145.51 505.718 145.51 505.918 145.51L518.348 125.97C517.627 124.231 516.566 122.654 515.228 121.33Z" fill="#D9E0F3"/>
<path d="M439.31 152.98C447.113 152.98 453.44 146.654 453.44 138.85C453.44 131.046 447.113 124.72 439.31 124.72C431.506 124.72 425.18 131.046 425.18 138.85C425.18 146.654 431.506 152.98 439.31 152.98Z" fill="#BFCBEB"/>
<path d="M439.306 124.73C438.637 124.739 437.969 124.793 437.306 124.89L425.816 142.95C426.73 145.941 428.608 148.547 431.156 150.36L446.296 126.57C444.168 125.355 441.757 124.721 439.306 124.73Z" fill="#D9E0F3"/>
<path d="M449.228 128.8L434.418 152.13C435.983 152.709 437.639 153.007 439.308 153.01C439.518 153.01 439.718 153.01 439.918 153.01L452.348 133.47C451.631 131.72 450.57 130.132 449.228 128.8Z" fill="#D9E0F3"/>
<path d="M374.048 145.51C381.852 145.51 388.178 139.184 388.178 131.38C388.178 123.576 381.852 117.25 374.048 117.25C366.244 117.25 359.918 123.576 359.918 131.38C359.918 139.184 366.244 145.51 374.048 145.51Z" fill="#BFCBEB"/>
<path d="M374.049 117.26C373.379 117.268 372.711 117.322 372.049 117.42L360.559 135.48C361.469 138.473 363.347 141.08 365.899 142.89L380.999 119.13C378.884 117.911 376.489 117.267 374.049 117.26Z" fill="#D9E0F3"/>
<path d="M383.97 121.33L369.16 144.63C370.726 145.209 372.381 145.507 374.05 145.51C374.26 145.51 374.46 145.51 374.66 145.51L387.09 125.97C386.369 124.231 385.309 122.654 383.97 121.33Z" fill="#D9E0F3"/>
<path d="M439.657 26.6099C427.876 26.5958 416.286 29.5794 405.977 35.2799C406.877 34.9199 438.837 22.3399 470.797 40.1799C502.757 58.0199 509.077 91.1799 509.287 92.3099C508.256 74.5417 500.47 57.8401 487.525 45.6256C474.58 33.4111 457.455 26.6081 439.657 26.6099Z" fill="#D9E0F3"/>
<path d="M589.659 135.65C589.659 121.44 526.809 101.65 512.309 97.25C512.309 97.25 575.429 121.15 576.939 133.3C578.449 145.45 544.659 155.13 544.589 155.13L567.589 149.45C581.099 145.21 589.659 140.57 589.659 135.65Z" fill="#C57642"/>
<path d="M288.977 135.65C288.977 121.44 351.827 101.65 366.327 97.25C366.327 97.25 303.207 121.13 301.657 133.3C300.107 145.47 333.977 155.13 334.007 155.13L311.007 149.45C297.497 145.21 288.977 140.57 288.977 135.65Z" fill="#C57642"/>
<defs>
<linearGradient id="paint0_linear_46_7052" x1="439.68" y1="119.79" x2="439.68" y2="330.13" gradientUnits="userSpaceOnUse">
<stop stop-color="white"/>
<stop offset="0.1" stop-color="#F7F8FB"/>
<stop offset="0.41" stop-color="#E1E6EF"/>
<stop offset="0.72" stop-color="#D4DBE8"/>
<stop offset="1" stop-color="#373E43"/>
</linearGradient>
<linearGradient id="paint1_linear_46_7052" x1="439.68" y1="313.73" x2="439.68" y2="346.25" gradientUnits="userSpaceOnUse">
<stop stop-color="white"/>
<stop offset="0.6" stop-color="#E6EAF2"/>
<stop offset="1" stop-color="#DBE0EC"/>
</linearGradient>
</defs>
</svg>
